<?xml version="1.0" encoding="utf-8"?>
<!-- Generator: Adobe Illustrator 19.2.1, SVG Export Plug-In . SVG Version: 6.00 Build 0)  -->
<svg version="1.1" id="레이어_1" xmlns="http://www.w3.org/2000/svg" xmlns:xlink="http://www.w3.org/1999/xlink" x="0px"
	 y="0px" viewBox="0 0 162 80" style="enable-background:new 0 0 162 80;" xml:space="preserve">
<style type="text/css">
	.st0{fill:#4A0B23;}
	.st1{fill:#490822;}
	.st2{fill:#FFFFFF;}
</style>
<g>
	<g>
		<path class="st0" d="M7.6,69c-0.1,0.8-0.4,1.3-0.8,1.7c-0.5,0.4-1.1,0.6-1.9,0.6c-0.8,0-1.5-0.3-2-0.9C2.3,69.8,2.1,69,2.1,68
			v-0.7c0-0.7,0.1-1.2,0.4-1.7c0.2-0.5,0.6-0.9,1-1.2S4.4,64,5,64c0.8,0,1.4,0.2,1.8,0.6c0.5,0.4,0.7,1,0.8,1.8H6.6
			c-0.1-0.6-0.3-1-0.5-1.2c-0.3-0.3-0.7-0.4-1.1-0.4c-0.6,0-1.1,0.2-1.4,0.7S3,66.5,3,67.3V68c0,0.8,0.2,1.4,0.5,1.8
			s0.8,0.7,1.4,0.7c0.5,0,0.9-0.1,1.2-0.4C6.4,70,6.5,69.5,6.6,69H7.6z"/>
		<path class="st0" d="M14.4,64.1v4.8c0,0.7-0.2,1.2-0.6,1.6c-0.4,0.4-1,0.7-1.7,0.7l-0.2,0c-0.8,0-1.4-0.2-1.9-0.6s-0.7-1-0.7-1.7
			v-4.8h0.9v4.8c0,0.5,0.1,0.9,0.4,1.2c0.3,0.3,0.7,0.4,1.2,0.4c0.5,0,0.9-0.1,1.2-0.4s0.4-0.7,0.4-1.2v-4.8H14.4z"/>
		<path class="st0" d="M18.4,68c-0.8-0.2-1.4-0.5-1.8-0.9s-0.5-0.8-0.5-1.2c0-0.6,0.2-1,0.7-1.4s1-0.5,1.7-0.5
			c0.5,0,0.9,0.1,1.3,0.3c0.4,0.2,0.7,0.4,0.9,0.8s0.3,0.7,0.3,1.1h-0.9c0-0.4-0.1-0.8-0.4-1c-0.3-0.2-0.7-0.4-1.2-0.4
			c-0.5,0-0.8,0.1-1.1,0.3c-0.3,0.2-0.4,0.5-0.4,0.8c0,0.3,0.1,0.5,0.4,0.7c0.2,0.2,0.7,0.4,1.3,0.6c0.6,0.2,1.1,0.3,1.4,0.5
			s0.6,0.4,0.7,0.7c0.2,0.3,0.2,0.6,0.2,0.9c0,0.6-0.2,1-0.7,1.4s-1,0.5-1.8,0.5c-0.5,0-0.9-0.1-1.4-0.3c-0.4-0.2-0.7-0.4-1-0.8
			c-0.2-0.3-0.3-0.7-0.3-1.1h0.9c0,0.4,0.2,0.8,0.5,1s0.7,0.4,1.3,0.4c0.5,0,0.9-0.1,1.1-0.3c0.3-0.2,0.4-0.5,0.4-0.8
			c0-0.3-0.1-0.6-0.4-0.8S19.1,68.2,18.4,68z"/>
		<path class="st0" d="M27.7,64.9h-2.3v6.3h-0.9v-6.3h-2.3v-0.8h5.5V64.9z"/>
		<path class="st0" d="M34.7,67.9c0,0.7-0.1,1.3-0.4,1.8c-0.2,0.5-0.6,0.9-1,1.2s-0.9,0.4-1.5,0.4c-0.6,0-1.1-0.1-1.5-0.4
			c-0.4-0.3-0.8-0.7-1-1.2C29.1,69.2,29,68.6,29,68v-0.5c0-0.7,0.1-1.3,0.4-1.8c0.2-0.5,0.6-0.9,1-1.2s0.9-0.4,1.5-0.4
			c0.6,0,1.1,0.1,1.5,0.4c0.4,0.3,0.8,0.7,1,1.2s0.4,1.1,0.4,1.8V67.9z M33.8,67.4c0-0.8-0.2-1.5-0.5-1.9c-0.3-0.5-0.8-0.7-1.4-0.7
			c-0.6,0-1.1,0.2-1.4,0.7c-0.3,0.5-0.5,1.1-0.5,1.9v0.5c0,0.8,0.2,1.5,0.5,1.9c0.3,0.5,0.8,0.7,1.4,0.7c0.6,0,1.1-0.2,1.4-0.7
			c0.3-0.4,0.5-1.1,0.5-1.9V67.4z"/>
		<path class="st0" d="M37.8,64.1l2.3,5.8l2.3-5.8h1.2v7.1h-0.9v-2.8l0.1-3l-2.3,5.8h-0.7l-2.3-5.7l0.1,3v2.8h-0.9v-7.1H37.8z"/>
		<path class="st0" d="M54.3,71.2h-0.9v-3.3h-3.6v3.3h-0.9v-7.1h0.9v3.1h3.6v-3.1h0.9V71.2z"/>
		<path class="st0" d="M60.4,69.4h-3l-0.7,1.9h-1l2.7-7.1h0.8l2.7,7.1h-1L60.4,69.4z M57.7,68.6h2.4l-1.2-3.3L57.7,68.6z"/>
		<path class="st0" d="M68.9,71.2H68l-3.6-5.5v5.5h-0.9v-7.1h0.9l3.6,5.5v-5.5h0.9V71.2z"/>
		<path class="st0" d="M71.1,71.2v-7.1h2c0.6,0,1.2,0.1,1.6,0.4s0.8,0.7,1.1,1.2c0.3,0.5,0.4,1.1,0.4,1.7v0.5c0,0.7-0.1,1.3-0.4,1.8
			c-0.3,0.5-0.6,0.9-1.1,1.2c-0.5,0.3-1,0.4-1.7,0.4H71.1z M72,64.9v5.6h1c0.7,0,1.3-0.2,1.7-0.7c0.4-0.5,0.6-1.1,0.6-1.9v-0.4
			c0-0.8-0.2-1.4-0.6-1.9c-0.4-0.4-0.9-0.7-1.6-0.7H72z"/>
		<path class="st0" d="M83.4,69c-0.1,0.8-0.4,1.3-0.8,1.7c-0.5,0.4-1.1,0.6-1.9,0.6c-0.8,0-1.5-0.3-2-0.9c-0.5-0.6-0.8-1.4-0.8-2.4
			v-0.7c0-0.7,0.1-1.2,0.4-1.7c0.2-0.5,0.6-0.9,1-1.2s0.9-0.4,1.5-0.4c0.8,0,1.4,0.2,1.8,0.6c0.5,0.4,0.7,1,0.8,1.8h-0.9
			c-0.1-0.6-0.3-1-0.5-1.2c-0.3-0.3-0.7-0.4-1.1-0.4c-0.6,0-1.1,0.2-1.4,0.7s-0.5,1.1-0.5,1.9V68c0,0.8,0.2,1.4,0.5,1.8
			s0.8,0.7,1.4,0.7c0.5,0,0.9-0.1,1.2-0.4c0.3-0.2,0.5-0.6,0.6-1.2H83.4z"/>
		<path class="st0" d="M87.8,68.3h-1.7v2.9h-0.9v-7.1h2.4c0.8,0,1.4,0.2,1.8,0.5c0.4,0.4,0.6,0.9,0.6,1.6c0,0.4-0.1,0.8-0.4,1.2
			c-0.2,0.3-0.6,0.6-1,0.7l1.7,3v0.1h-1L87.8,68.3z M86.1,67.6h1.4c0.5,0,0.8-0.1,1.1-0.4c0.3-0.2,0.4-0.6,0.4-1
			c0-0.4-0.1-0.8-0.4-1c-0.3-0.2-0.6-0.4-1.1-0.4h-1.4V67.6z"/>
		<path class="st0" d="M95.7,69.4h-3l-0.7,1.9h-1l2.7-7.1h0.8l2.7,7.1h-1L95.7,69.4z M93,68.6h2.4l-1.2-3.3L93,68.6z"/>
		<path class="st0" d="M102.8,68.1h-3v3.1h-0.9v-7.1h4.4v0.8h-3.5v2.4h3V68.1z"/>
		<path class="st0" d="M109.8,64.9h-2.3v6.3h-0.9v-6.3h-2.3v-0.8h5.5V64.9z"/>
		<path class="st0" d="M115.4,67.9h-3.1v2.5h3.6v0.8h-4.5v-7.1h4.5v0.8h-3.5v2.3h3.1V67.9z"/>
		<path class="st0" d="M117.5,71.2v-7.1h2c0.6,0,1.2,0.1,1.6,0.4c0.5,0.3,0.8,0.7,1.1,1.2c0.3,0.5,0.4,1.1,0.4,1.7v0.5
			c0,0.7-0.1,1.3-0.4,1.8c-0.3,0.5-0.6,0.9-1.1,1.2c-0.5,0.3-1,0.4-1.7,0.4H117.5z M118.5,64.9v5.6h1c0.7,0,1.3-0.2,1.7-0.7
			c0.4-0.5,0.6-1.1,0.6-1.9v-0.4c0-0.8-0.2-1.4-0.6-1.9c-0.4-0.4-0.9-0.7-1.6-0.7H118.5z"/>
		<path class="st0" d="M129.6,68c-0.8-0.2-1.4-0.5-1.8-0.9s-0.5-0.8-0.5-1.2c0-0.6,0.2-1,0.7-1.4c0.4-0.4,1-0.5,1.7-0.5
			c0.5,0,0.9,0.1,1.3,0.3c0.4,0.2,0.7,0.4,0.9,0.8s0.3,0.7,0.3,1.1h-0.9c0-0.4-0.1-0.8-0.4-1c-0.3-0.2-0.7-0.4-1.2-0.4
			c-0.5,0-0.8,0.1-1.1,0.3c-0.3,0.2-0.4,0.5-0.4,0.8c0,0.3,0.1,0.5,0.4,0.7c0.2,0.2,0.7,0.4,1.3,0.6c0.6,0.2,1.1,0.3,1.4,0.5
			c0.3,0.2,0.6,0.4,0.7,0.7c0.2,0.3,0.2,0.6,0.2,0.9c0,0.6-0.2,1-0.7,1.4s-1,0.5-1.8,0.5c-0.5,0-0.9-0.1-1.4-0.3
			c-0.4-0.2-0.7-0.4-1-0.8c-0.2-0.3-0.3-0.7-0.3-1.1h0.9c0,0.4,0.2,0.8,0.5,1s0.7,0.4,1.3,0.4c0.5,0,0.9-0.1,1.1-0.3
			c0.3-0.2,0.4-0.5,0.4-0.8c0-0.3-0.1-0.6-0.4-0.8S130.3,68.2,129.6,68z"/>
		<path class="st0" d="M139.4,71.2h-0.9v-3.3h-3.6v3.3H134v-7.1h0.9v3.1h3.6v-3.1h0.9V71.2z"/>
		<path class="st0" d="M147.1,67.9c0,0.7-0.1,1.3-0.4,1.8c-0.2,0.5-0.6,0.9-1,1.2s-0.9,0.4-1.5,0.4c-0.6,0-1.1-0.1-1.5-0.4
			c-0.4-0.3-0.8-0.7-1-1.2c-0.2-0.5-0.4-1.1-0.4-1.8v-0.5c0-0.7,0.1-1.3,0.4-1.8c0.2-0.5,0.6-0.9,1-1.2s0.9-0.4,1.5-0.4
			c0.6,0,1.1,0.1,1.5,0.4c0.4,0.3,0.8,0.7,1,1.2s0.4,1.1,0.4,1.8V67.9z M146.2,67.4c0-0.8-0.2-1.5-0.5-1.9c-0.3-0.5-0.8-0.7-1.4-0.7
			c-0.6,0-1.1,0.2-1.4,0.7c-0.3,0.5-0.5,1.1-0.5,1.9v0.5c0,0.8,0.2,1.5,0.5,1.9c0.3,0.5,0.8,0.7,1.4,0.7c0.6,0,1.1-0.2,1.4-0.7
			c0.3-0.4,0.5-1.1,0.5-1.9V67.4z"/>
		<path class="st0" d="M153,67.9h-3.1v2.5h3.6v0.8H149v-7.1h4.5v0.8h-3.5v2.3h3.1V67.9z"/>
		<path class="st0" d="M157.3,68c-0.8-0.2-1.4-0.5-1.8-0.9s-0.5-0.8-0.5-1.2c0-0.6,0.2-1,0.7-1.4c0.4-0.4,1-0.5,1.7-0.5
			c0.5,0,0.9,0.1,1.3,0.3c0.4,0.2,0.7,0.4,0.9,0.8s0.3,0.7,0.3,1.1h-0.9c0-0.4-0.1-0.8-0.4-1c-0.3-0.2-0.7-0.4-1.2-0.4
			c-0.5,0-0.8,0.1-1.1,0.3c-0.3,0.2-0.4,0.5-0.4,0.8c0,0.3,0.1,0.5,0.4,0.7c0.2,0.2,0.7,0.4,1.3,0.6c0.6,0.2,1.1,0.3,1.4,0.5
			c0.3,0.2,0.6,0.4,0.7,0.7c0.2,0.3,0.2,0.6,0.2,0.9c0,0.6-0.2,1-0.7,1.4s-1,0.5-1.8,0.5c-0.5,0-0.9-0.1-1.4-0.3
			c-0.4-0.2-0.7-0.4-1-0.8c-0.2-0.3-0.3-0.7-0.3-1.1h0.9c0,0.4,0.2,0.8,0.5,1s0.7,0.4,1.3,0.4c0.5,0,0.9-0.1,1.1-0.3
			c0.3-0.2,0.4-0.5,0.4-0.8c0-0.3-0.1-0.6-0.4-0.8S157.9,68.2,157.3,68z"/>
	</g>
	<g>
		<path class="st1" d="M94,26.3c-2.8,0-5.5,1-8.1,3c-1.2,0.9-2.3,2-3.3,3.3c-1,1.3-1.8,2.6-2.6,4c-0.7,1.4-1.3,2.9-1.6,4.5
			c-0.4,1.5-0.6,3.1-0.6,4.6s0.2,2.8,0.7,3.9c0.4,1.1,1,2,1.8,2.7c0.8,0.7,1.6,1.2,2.7,1.6s2.2,0.5,3.5,0.5c1.3,0,2.7-0.3,4-0.8
			c2.7-1.1,5-2.9,7-5.5c2-2.6,3.4-5.4,4.1-8.4c0.8-3.3,0.8-6.2-0.2-8.5C100.2,27.9,97.7,26.3,94,26.3z M94.7,41.1
			c-0.5,1.3-1.1,2.6-1.7,3.8c-0.7,1.2-1.4,2.3-2.1,3.2c-0.8,0.9-1.5,1.7-2.3,2.2c-0.8,0.6-1.6,0.8-2.4,0.8s-1.4-0.4-1.8-1.1
			c-0.4-0.7-0.6-1.7-0.6-2.9c0-1.2,0.1-2.6,0.4-4s0.7-2.8,1.3-4.1c0.5-1.3,1.2-2.6,1.9-3.8c0.7-1.2,1.4-2.2,2.2-3.1
			c0.8-0.9,1.5-1.6,2.3-2.1c0.8-0.5,1.4-0.8,2-0.8s1,0.1,1.4,0.3c0.8,0.5,1.2,1.8,1.2,3.8C96.3,35.7,95.8,38.2,94.7,41.1z"/>
		<path class="st1" d="M145.9,33c0.5-1,0.7-2,0.7-3.2c0-1.2-0.7-2.5-1.7-3.2c-1.5-1.1-3.3-1.4-5.1-1.4c-0.3,0-3,0-2.3,0.6
			c0.7,0.7,2.1,0.8,3,1.4c4.2,2.7-2.8,7.4-5,8.8c-1.1,0.8-2.4,1.5-3.6,2c-0.7,0.3-2.5,0.6-2.8,1.3c0.2-0.4,0.4-1,0.8-1.8l2.5-7
			c0.6-1.6,1.4-4.3,2.6-8c0.4-1.4,0.8-2.8,1.2-4.1c0.3-1.3,0.6-2.5,0.8-3.6c0.2-1.1,0.3-2.1,0.4-3c0-0.9-0.4-1.7-1.4-2.5
			c-0.5-0.4-1.1-0.6-1.9-0.6c-1.3,0-2,0.8-2.2,2.3c-0.4,3.1-1.2,6.6-2.2,10.5c-2.7,10.6-5.8,19.3-9.1,26.2l-0.7,1.4
			c0,0-0.1,0.1-0.1,0.1c-1.9,1.6-4.2,3-6.8,2.8c-2.2-0.2-3-1.8-3-3.8c0-1.8,1.1-5.8,3.2-12l3.7-10.9c0.6-1.8,1.2-3.6,1.7-5.2
			c0.5-1.6,0.9-3.2,1.2-4.5c0.3-1.4,0.5-2.6,0.5-3.5s-0.5-1.8-1.5-2.6c-0.5-0.4-1.2-0.6-2-0.6c-1.3,0-2,0.8-2.2,2.3
			c-0.5,5.1-2.4,12.3-5.6,21.6l-2.3,6.7c-0.7,2.1-1.2,3.9-1.7,5.5s-0.7,2.9-0.7,3.9c0,1,0.1,1.8,0.4,2.5c0.3,0.7,0.6,1.3,1.1,1.8
			c0.4,0.5,0.9,0.8,1.5,1s1.3,0.3,2.2,0.3c2.3,0,4.6-0.6,6.6-1.7c1-0.5,2.2-1.1,3-2c-0.2,0.4-0.3,0.7-0.3,0.9c0,0.7,0.3,1.3,0.9,1.9
			c0.3,0.3,0.7,0.5,1.1,0.7c0.4,0.2,0.9,0.3,1.4,0.3s1-0.3,1.4-0.8c0.4-0.6,0.8-1.3,1.3-2.3l1.6-3.7c0.6-1.4,1.4-3,2.4-4.8
			c2.4,7.7,5.7,11.6,9.7,11.6c1.5,0,2.9-0.5,4-1.4c0.5-0.4,0.8-0.8,1.1-1.2c0.3-0.4,0.5-0.8,0.7-1.1c0.2-0.3,0.2-0.8,0.2-1.2
			c0-0.5-0.2-0.8-0.7-0.8c-0.2,0-0.4,0.1-0.6,0.2l-1,0.5c-0.4,0.2-1,0.3-1.6,0.3c-1.2,0-2.5-0.9-3.9-2.6c-1.5-1.8-2.5-3.9-3.1-6.3
			c4.5-1.6,7.7-3.3,9.7-5C144.6,34.9,145.4,33.9,145.9,33z"/>
		<g>
			<path class="st1" d="M79.9,22.1c0-1.7-0.1-3-0.3-4.1c-0.6-3.2-1.8-4.7-3.6-4.7c-1.3,0-2.6,0.4-3.6,1.3c-1.1,0.9-1.4,1.6-1,2.1
				c1.3,2.1,2,4.6,2,7.6c0,3.9-1,8-3,12.2c-0.9,1.9-1.9,3.7-3,5.4c-1.1,1.7-2.3,3.2-3.5,4.4c-1.2,1.3-2.4,2.2-3.6,3
				C59,50.1,58,50.4,57,50.4s-1.7-0.4-2.2-1.3c-0.2-0.4-0.4-0.8-0.4-1.3c-0.1-0.4-0.1-1.3-0.1-2.5c0-1.2,0.2-2.9,0.6-5
				c1.2-6.8,3.6-12.1,7.2-15.9l0.9-1c0.2-0.2,0.3-0.4,0.3-0.7c0-0.5-0.4-1-1.2-1.4c-0.3-0.2-0.7-0.3-1.1-0.4
				c-0.4-0.1-0.7-0.1-1.1-0.1c-0.3,0-0.6,0.1-0.9,0.2c-1.5,0.8-3.1,1.8-4.7,3.1c-5.6,4.7-11.2,11.6-17,20.8l-2.8,4.7
				c-0.2-0.8-0.3-1.8-0.3-2.9c0-2,0.5-4.4,1.6-7.3c0.5-1.3,1.1-2.6,1.7-4c0.6-1.4,1.3-2.7,1.9-4.1c0.6-1.4,1.3-2.7,1.9-3.9
				c1.3-2.4,2.9-4.8,3.9-7.4c0-0.1,0.1-0.1,0.1-0.2l0,0c0.3-0.9,0.5-1.7,0.5-2.4c0-1-0.2-1.9-0.7-2.6c-0.5-0.7-1.1-1.3-1.8-1.7
				c-0.7-0.4-1.5-0.8-2.3-1c-0.9-0.2-1.7-0.3-2.4-0.3c-2,0-4,0.2-5.9,0.7c-1.9,0.4-3.8,1-5.5,1.8c-1.7,0.7-3.3,1.6-4.8,2.6
				c-1.5,1-2.7,2.1-3.8,3.2c-1.1,1.1-1.9,2.3-2.5,3.5c-0.6,1.2-0.9,2.3-0.9,3.5c0,1.3,0.3,2.4,0.8,3.4c0.5,1,1.2,1.8,2,2.4
				c0.8,0.7,1.7,1.1,2.8,1.5c1,0.3,2,0.5,3,0.5c0.3,0,0.8-0.1,1.4-0.2c0.6-0.1,1.2-0.3,1.8-0.5c0.6-0.2,1.1-0.5,1.5-0.9
				c0.4-0.4,0.7-0.8,0.7-1.3s-0.1-0.7-0.4-0.5c-0.3,0.1-0.6,0.3-1.2,0.7c-0.5,0.3-1.1,0.7-1.9,1c-0.7,0.4-1.6,0.5-2.6,0.5
				c-0.4,0-0.9-0.1-1.4-0.2c-0.5-0.1-1-0.3-1.5-0.6c-0.5-0.3-0.8-0.7-1.1-1.2c-0.3-0.5-0.5-1.1-0.5-1.9c0-1.1,0.3-2.3,0.8-3.6
				c0.5-1.3,1.3-2.5,2.2-3.8c1-1.2,2.1-2.4,3.4-3.6c1.3-1.1,2.7-2.2,4.2-3c0.3-0.2,0.6-0.3,0.8-0.5c7.8-3.9,9.7-0.7,9.7-0.7
				c1.1,1.4-1.6,5.4-2.4,6.8c-0.9,1.6-1.7,3.2-2.5,4.8c-0.9,1.7-1.7,3.6-2.4,5.5c-0.8,1.8-1.4,3.7-2,5.4c-0.6,1.7-1,3.4-1.4,5
				c-0.3,1.6-0.5,3.1-0.5,4.6s0.4,3,1.2,4.5c0.4,0.8,0.9,1.4,1.6,1.9c0.6,0.5,1.4,0.8,2.3,0.8c0.9,0,1.5-0.3,1.9-0.8l3.5-5.1
				c1.4-2,3.8-5.3,7.3-9.9c1.4-1.8,2.9-3.5,4.4-5.2c-1.6,3.9-2.4,7.9-2.4,12c0,2.5,0.5,4.5,1.5,6.1c1.2,1.9,2.9,2.8,5.3,2.8
				c2.6,0,5.3-0.9,8.2-2.8c1.4-0.9,2.8-2,4.1-3.2c1.3-1.3,2.6-2.7,3.8-4.2c1.2-1.5,2.3-3.2,3.3-5s1.9-3.6,2.6-5.5
				c0.7-1.9,1.3-3.9,1.7-5.9C79.7,25.6,79.9,23.7,79.9,22.1z"/>
		</g>
	</g>
</g>
<g>
	<g>
		<path class="st0" d="M43.6,143.2c0,0.4-0.2,0.7-0.4,0.9c-0.2,0.2-0.6,0.3-0.9,0.3c-0.4,0-0.8-0.2-1-0.5c-0.3-0.3-0.4-0.7-0.4-1.2
			v-0.3c0-0.3,0.1-0.6,0.2-0.9c0.1-0.3,0.3-0.4,0.5-0.6c0.2-0.1,0.5-0.2,0.8-0.2c0.4,0,0.7,0.1,0.9,0.3c0.2,0.2,0.4,0.5,0.4,0.9
			h-0.5c0-0.3-0.1-0.5-0.3-0.6c-0.1-0.1-0.3-0.2-0.6-0.2c-0.3,0-0.5,0.1-0.7,0.3s-0.3,0.5-0.3,1v0.3c0,0.4,0.1,0.7,0.2,0.9
			c0.2,0.2,0.4,0.3,0.7,0.3c0.3,0,0.5-0.1,0.6-0.2c0.1-0.1,0.2-0.3,0.3-0.6H43.6z"/>
		<path class="st0" d="M47,140.7v2.5c0,0.3-0.1,0.6-0.3,0.8c-0.2,0.2-0.5,0.3-0.9,0.4l-0.1,0c-0.4,0-0.7-0.1-0.9-0.3
			c-0.2-0.2-0.4-0.5-0.4-0.9v-2.5h0.5v2.4c0,0.3,0.1,0.5,0.2,0.6c0.1,0.1,0.3,0.2,0.6,0.2c0.3,0,0.5-0.1,0.6-0.2s0.2-0.3,0.2-0.6
			v-2.4H47z"/>
		<path class="st0" d="M49.1,142.7c-0.4-0.1-0.7-0.3-0.9-0.4c-0.2-0.2-0.3-0.4-0.3-0.6c0-0.3,0.1-0.5,0.3-0.7
			c0.2-0.2,0.5-0.3,0.9-0.3c0.2,0,0.5,0,0.7,0.1c0.2,0.1,0.3,0.2,0.5,0.4s0.2,0.4,0.2,0.6H50c0-0.2-0.1-0.4-0.2-0.5
			c-0.1-0.1-0.3-0.2-0.6-0.2c-0.2,0-0.4,0.1-0.5,0.2c-0.1,0.1-0.2,0.2-0.2,0.4c0,0.1,0.1,0.3,0.2,0.4c0.1,0.1,0.3,0.2,0.6,0.3
			c0.3,0.1,0.5,0.2,0.7,0.3s0.3,0.2,0.4,0.4c0.1,0.1,0.1,0.3,0.1,0.5c0,0.3-0.1,0.5-0.3,0.7s-0.5,0.3-0.9,0.3c-0.2,0-0.5,0-0.7-0.1
			c-0.2-0.1-0.4-0.2-0.5-0.4c-0.1-0.2-0.2-0.4-0.2-0.6h0.5c0,0.2,0.1,0.4,0.2,0.5c0.2,0.1,0.4,0.2,0.6,0.2c0.3,0,0.4-0.1,0.6-0.2
			c0.1-0.1,0.2-0.2,0.2-0.4c0-0.2-0.1-0.3-0.2-0.4C49.7,142.9,49.4,142.8,49.1,142.7z"/>
		<path class="st0" d="M53.8,141.1h-1.2v3.2h-0.5v-3.2H51v-0.4h2.8V141.1z"/>
		<path class="st0" d="M57.4,142.6c0,0.4-0.1,0.7-0.2,0.9c-0.1,0.3-0.3,0.5-0.5,0.6c-0.2,0.1-0.5,0.2-0.8,0.2
			c-0.3,0-0.5-0.1-0.8-0.2c-0.2-0.1-0.4-0.3-0.5-0.6c-0.1-0.3-0.2-0.6-0.2-0.9v-0.3c0-0.3,0.1-0.7,0.2-0.9c0.1-0.3,0.3-0.5,0.5-0.6
			c0.2-0.1,0.5-0.2,0.8-0.2c0.3,0,0.5,0.1,0.8,0.2c0.2,0.1,0.4,0.3,0.5,0.6c0.1,0.3,0.2,0.6,0.2,0.9V142.6z M56.9,142.4
			c0-0.4-0.1-0.8-0.3-1c-0.2-0.2-0.4-0.3-0.7-0.3c-0.3,0-0.5,0.1-0.7,0.3c-0.2,0.2-0.3,0.5-0.3,1v0.3c0,0.4,0.1,0.7,0.3,1
			c0.2,0.2,0.4,0.4,0.7,0.4c0.3,0,0.5-0.1,0.7-0.3c0.2-0.2,0.3-0.5,0.3-1V142.4z"/>
		<path class="st0" d="M58.9,140.7l1.2,2.9l1.2-2.9h0.6v3.6h-0.5v-1.4l0-1.5l-1.2,2.9h-0.4l-1.2-2.9l0,1.5v1.4h-0.5v-3.6H58.9z"/>
		<path class="st0" d="M67.3,144.3h-0.5v-1.7H65v1.7h-0.5v-3.6H65v1.5h1.8v-1.5h0.5V144.3z"/>
		<path class="st0" d="M70.4,143.4h-1.5l-0.3,0.9H68l1.4-3.6h0.4l1.4,3.6h-0.5L70.4,143.4z M69,143h1.2l-0.6-1.7L69,143z"/>
		<path class="st0" d="M74.7,144.3h-0.5l-1.8-2.8v2.8h-0.5v-3.6h0.5l1.8,2.8v-2.8h0.5V144.3z"/>
		<path class="st0" d="M75.8,144.3v-3.6h1c0.3,0,0.6,0.1,0.8,0.2c0.2,0.1,0.4,0.3,0.6,0.6c0.1,0.3,0.2,0.5,0.2,0.9v0.2
			c0,0.3-0.1,0.6-0.2,0.9c-0.1,0.3-0.3,0.5-0.6,0.6c-0.2,0.1-0.5,0.2-0.9,0.2H75.8z M76.3,141.1v2.8h0.5c0.4,0,0.7-0.1,0.9-0.3
			c0.2-0.2,0.3-0.6,0.3-1v-0.2c0-0.4-0.1-0.7-0.3-1c-0.2-0.2-0.5-0.3-0.8-0.3H76.3z"/>
		<path class="st0" d="M82,143.2c0,0.4-0.2,0.7-0.4,0.9c-0.2,0.2-0.6,0.3-0.9,0.3c-0.4,0-0.8-0.2-1-0.5c-0.3-0.3-0.4-0.7-0.4-1.2
			v-0.3c0-0.3,0.1-0.6,0.2-0.9c0.1-0.3,0.3-0.4,0.5-0.6c0.2-0.1,0.5-0.2,0.8-0.2c0.4,0,0.7,0.1,0.9,0.3c0.2,0.2,0.4,0.5,0.4,0.9
			h-0.5c0-0.3-0.1-0.5-0.3-0.6c-0.1-0.1-0.3-0.2-0.6-0.2c-0.3,0-0.5,0.1-0.7,0.3c-0.2,0.2-0.3,0.5-0.3,1v0.3c0,0.4,0.1,0.7,0.2,0.9
			c0.2,0.2,0.4,0.3,0.7,0.3c0.3,0,0.5-0.1,0.6-0.2c0.1-0.1,0.2-0.3,0.3-0.6H82z"/>
		<path class="st0" d="M84.3,142.8h-0.8v1.5h-0.5v-3.6h1.2c0.4,0,0.7,0.1,0.9,0.3c0.2,0.2,0.3,0.5,0.3,0.8c0,0.2-0.1,0.4-0.2,0.6
			c-0.1,0.2-0.3,0.3-0.5,0.4l0.8,1.5v0H85L84.3,142.8z M83.4,142.5h0.7c0.2,0,0.4-0.1,0.6-0.2c0.1-0.1,0.2-0.3,0.2-0.5
			c0-0.2-0.1-0.4-0.2-0.5c-0.1-0.1-0.3-0.2-0.6-0.2h-0.7V142.5z"/>
		<path class="st0" d="M88.3,143.4h-1.5l-0.3,0.9H86l1.4-3.6h0.4l1.4,3.6h-0.5L88.3,143.4z M86.9,143h1.2l-0.6-1.7L86.9,143z"/>
		<path class="st0" d="M91.9,142.7h-1.5v1.6h-0.5v-3.6h2.2v0.4h-1.8v1.2h1.5V142.7z"/>
		<path class="st0" d="M95.4,141.1h-1.2v3.2h-0.5v-3.2h-1.2v-0.4h2.8V141.1z"/>
		<path class="st0" d="M98.2,142.6h-1.6v1.3h1.8v0.4h-2.3v-3.6h2.3v0.4h-1.8v1.2h1.6V142.6z"/>
		<path class="st0" d="M99.3,144.3v-3.6h1c0.3,0,0.6,0.1,0.8,0.2c0.2,0.1,0.4,0.3,0.6,0.6c0.1,0.3,0.2,0.5,0.2,0.9v0.2
			c0,0.3-0.1,0.6-0.2,0.9c-0.1,0.3-0.3,0.5-0.6,0.6c-0.2,0.1-0.5,0.2-0.9,0.2H99.3z M99.8,141.1v2.8h0.5c0.4,0,0.7-0.1,0.9-0.3
			c0.2-0.2,0.3-0.6,0.3-1v-0.2c0-0.4-0.1-0.7-0.3-1c-0.2-0.2-0.5-0.3-0.8-0.3H99.8z"/>
		<path class="st0" d="M105.5,142.7c-0.4-0.1-0.7-0.3-0.9-0.4c-0.2-0.2-0.3-0.4-0.3-0.6c0-0.3,0.1-0.5,0.3-0.7
			c0.2-0.2,0.5-0.3,0.9-0.3c0.2,0,0.5,0,0.7,0.1c0.2,0.1,0.3,0.2,0.5,0.4s0.2,0.4,0.2,0.6h-0.5c0-0.2-0.1-0.4-0.2-0.5
			c-0.1-0.1-0.3-0.2-0.6-0.2c-0.2,0-0.4,0.1-0.5,0.2c-0.1,0.1-0.2,0.2-0.2,0.4c0,0.1,0.1,0.3,0.2,0.4c0.1,0.1,0.3,0.2,0.6,0.3
			c0.3,0.1,0.5,0.2,0.7,0.3c0.2,0.1,0.3,0.2,0.4,0.4c0.1,0.1,0.1,0.3,0.1,0.5c0,0.3-0.1,0.5-0.3,0.7s-0.5,0.3-0.9,0.3
			c-0.2,0-0.5,0-0.7-0.1c-0.2-0.1-0.4-0.2-0.5-0.4c-0.1-0.2-0.2-0.4-0.2-0.6h0.5c0,0.2,0.1,0.4,0.2,0.5c0.2,0.1,0.4,0.2,0.6,0.2
			c0.3,0,0.4-0.1,0.6-0.2c0.1-0.1,0.2-0.2,0.2-0.4c0-0.2-0.1-0.3-0.2-0.4C106,142.9,105.8,142.8,105.5,142.7z"/>
		<path class="st0" d="M110.5,144.3H110v-1.7h-1.8v1.7h-0.5v-3.6h0.5v1.5h1.8v-1.5h0.5V144.3z"/>
		<path class="st0" d="M114.3,142.6c0,0.4-0.1,0.7-0.2,0.9c-0.1,0.3-0.3,0.5-0.5,0.6c-0.2,0.1-0.5,0.2-0.8,0.2
			c-0.3,0-0.5-0.1-0.8-0.2c-0.2-0.1-0.4-0.3-0.5-0.6c-0.1-0.3-0.2-0.6-0.2-0.9v-0.3c0-0.3,0.1-0.7,0.2-0.9c0.1-0.3,0.3-0.5,0.5-0.6
			c0.2-0.1,0.5-0.2,0.8-0.2c0.3,0,0.5,0.1,0.8,0.2c0.2,0.1,0.4,0.3,0.5,0.6c0.1,0.3,0.2,0.6,0.2,0.9V142.6z M113.9,142.4
			c0-0.4-0.1-0.8-0.3-1c-0.2-0.2-0.4-0.3-0.7-0.3c-0.3,0-0.5,0.1-0.7,0.3c-0.2,0.2-0.3,0.5-0.3,1v0.3c0,0.4,0.1,0.7,0.3,1
			c0.2,0.2,0.4,0.4,0.7,0.4c0.3,0,0.5-0.1,0.7-0.3c0.2-0.2,0.3-0.5,0.3-1V142.4z"/>
		<path class="st0" d="M117.3,142.6h-1.6v1.3h1.8v0.4h-2.3v-3.6h2.3v0.4h-1.8v1.2h1.6V142.6z"/>
		<path class="st0" d="M119.5,142.7c-0.4-0.1-0.7-0.3-0.9-0.4c-0.2-0.2-0.3-0.4-0.3-0.6c0-0.3,0.1-0.5,0.3-0.7
			c0.2-0.2,0.5-0.3,0.9-0.3c0.2,0,0.5,0,0.7,0.1c0.2,0.1,0.3,0.2,0.5,0.4c0.1,0.2,0.2,0.4,0.2,0.6h-0.5c0-0.2-0.1-0.4-0.2-0.5
			c-0.1-0.1-0.3-0.2-0.6-0.2c-0.2,0-0.4,0.1-0.5,0.2c-0.1,0.1-0.2,0.2-0.2,0.4c0,0.1,0.1,0.3,0.2,0.4c0.1,0.1,0.3,0.2,0.6,0.3
			c0.3,0.1,0.5,0.2,0.7,0.3c0.2,0.1,0.3,0.2,0.4,0.4c0.1,0.1,0.1,0.3,0.1,0.5c0,0.3-0.1,0.5-0.3,0.7s-0.5,0.3-0.9,0.3
			c-0.2,0-0.5,0-0.7-0.1c-0.2-0.1-0.4-0.2-0.5-0.4c-0.1-0.2-0.2-0.4-0.2-0.6h0.5c0,0.2,0.1,0.4,0.2,0.5c0.2,0.1,0.4,0.2,0.6,0.2
			c0.3,0,0.4-0.1,0.6-0.2c0.1-0.1,0.2-0.2,0.2-0.4c0-0.2-0.1-0.3-0.2-0.4C120,142.9,119.8,142.8,119.5,142.7z"/>
	</g>
	<g>
		<path class="st1" d="M87.6,121.5c-1.4,0-2.8,0.5-4.1,1.5c-0.6,0.5-1.2,1-1.7,1.7c-0.5,0.6-0.9,1.3-1.3,2c-0.4,0.7-0.6,1.5-0.8,2.3
			c-0.2,0.8-0.3,1.6-0.3,2.3c0,0.8,0.1,1.4,0.3,2c0.2,0.6,0.5,1,0.9,1.4c0.4,0.4,0.8,0.6,1.4,0.8c0.5,0.2,1.1,0.3,1.8,0.3
			c0.7,0,1.3-0.1,2-0.4c1.4-0.5,2.6-1.5,3.6-2.8c1-1.3,1.7-2.7,2.1-4.3c0.4-1.7,0.4-3.1-0.1-4.3C90.7,122.3,89.5,121.5,87.6,121.5z
			 M87.9,129c-0.3,0.7-0.5,1.3-0.9,1.9c-0.3,0.6-0.7,1.2-1.1,1.6c-0.4,0.5-0.8,0.9-1.2,1.1c-0.4,0.3-0.8,0.4-1.2,0.4
			s-0.7-0.2-0.9-0.5c-0.2-0.4-0.3-0.9-0.3-1.5c0-0.6,0.1-1.3,0.2-2c0.2-0.7,0.4-1.4,0.6-2.1c0.3-0.7,0.6-1.3,0.9-1.9
			c0.4-0.6,0.7-1.1,1.1-1.6c0.4-0.5,0.8-0.8,1.1-1.1c0.4-0.3,0.7-0.4,1-0.4c0.3,0,0.5,0.1,0.7,0.2c0.4,0.3,0.6,0.9,0.6,1.9
			C88.7,126.3,88.5,127.6,87.9,129z"/>
		<path class="st1" d="M113.9,124.9c0.2-0.5,0.4-1,0.4-1.6c0-0.6-0.4-1.2-0.8-1.6c-0.8-0.6-1.7-0.7-2.6-0.7c-0.1,0-1.5,0-1.2,0.3
			c0.4,0.4,1.1,0.4,1.5,0.7c2.1,1.4-1.4,3.7-2.5,4.5c-0.6,0.4-1.2,0.7-1.8,1c-0.4,0.2-1.3,0.3-1.4,0.7c0.1-0.2,0.2-0.5,0.4-0.9
			l1.3-3.5c0.3-0.8,0.7-2.2,1.3-4.1c0.2-0.7,0.4-1.4,0.6-2.1c0.2-0.7,0.3-1.3,0.4-1.8c0.1-0.6,0.2-1.1,0.2-1.5
			c0-0.4-0.2-0.9-0.7-1.3c-0.3-0.2-0.6-0.3-1-0.3c-0.6,0-1,0.4-1.1,1.1c-0.2,1.6-0.6,3.4-1.1,5.3c-1.4,5.4-2.9,9.8-4.6,13.3
			l-0.3,0.7c0,0,0,0-0.1,0c-1,0.8-2.1,1.5-3.4,1.4c-1.1-0.1-1.5-0.9-1.5-1.9c0-0.9,0.5-2.9,1.6-6.1l1.9-5.5c0.3-0.9,0.6-1.8,0.8-2.6
			c0.2-0.8,0.4-1.6,0.6-2.3c0.2-0.7,0.2-1.3,0.3-1.8s-0.2-0.9-0.8-1.3c-0.3-0.2-0.6-0.3-1-0.3c-0.7,0-1,0.4-1.1,1.1
			c-0.3,2.6-1.2,6.2-2.8,10.9l-1.1,3.4c-0.3,1-0.6,2-0.9,2.8s-0.3,1.5-0.3,2c0,0.5,0.1,0.9,0.2,1.3c0.1,0.4,0.3,0.7,0.6,0.9
			c0.2,0.2,0.5,0.4,0.8,0.5c0.3,0.1,0.7,0.2,1.1,0.2c1.2,0,2.3-0.3,3.4-0.9c0.5-0.3,1.1-0.6,1.5-1c-0.1,0.2-0.1,0.4-0.1,0.5
			c0,0.3,0.2,0.7,0.5,1c0.2,0.1,0.3,0.2,0.5,0.3c0.2,0.1,0.4,0.1,0.7,0.1s0.5-0.1,0.7-0.4c0.2-0.3,0.4-0.7,0.7-1.2l0.8-1.9
			c0.3-0.7,0.7-1.5,1.2-2.4c1.2,3.9,2.9,5.9,4.9,5.9c0.8,0,1.5-0.2,2-0.7c0.2-0.2,0.4-0.4,0.6-0.6c0.1-0.2,0.3-0.4,0.3-0.6
			c0.1-0.2,0.1-0.4,0.1-0.6c0-0.3-0.1-0.4-0.3-0.4c-0.1,0-0.2,0-0.3,0.1l-0.5,0.2c-0.2,0.1-0.5,0.2-0.8,0.2c-0.6,0-1.3-0.4-2-1.3
			c-0.8-0.9-1.3-2-1.6-3.2c2.3-0.8,3.9-1.7,4.9-2.5C113.3,125.9,113.6,125.4,113.9,124.9z"/>
		<g>
			<path class="st1" d="M80.4,119.4c0-0.9-0.1-1.5-0.2-2.1c-0.3-1.6-0.9-2.4-1.8-2.4c-0.7,0-1.3,0.2-1.8,0.7
				c-0.5,0.4-0.7,0.8-0.5,1.1c0.7,1.1,1,2.3,1,3.9c0,2-0.5,4-1.5,6.2c-0.4,1-1,1.9-1.5,2.8c-0.6,0.9-1.2,1.6-1.8,2.2
				c-0.6,0.6-1.2,1.1-1.8,1.5c-0.6,0.4-1.1,0.5-1.6,0.5s-0.9-0.2-1.1-0.7c-0.1-0.2-0.2-0.4-0.2-0.6c0-0.2-0.1-0.7-0.1-1.3
				c0-0.6,0.1-1.5,0.3-2.5c0.6-3.4,1.8-6.1,3.7-8.1l0.5-0.5c0.1-0.1,0.1-0.2,0.1-0.4c0-0.3-0.2-0.5-0.6-0.7
				c-0.2-0.1-0.4-0.1-0.6-0.2c-0.2,0-0.4-0.1-0.6-0.1c-0.2,0-0.3,0-0.4,0.1c-0.8,0.4-1.6,0.9-2.4,1.6c-2.8,2.4-5.7,5.9-8.6,10.6
				l-1.4,2.4c-0.1-0.4-0.2-0.9-0.2-1.5c0-1,0.3-2.3,0.8-3.7c0.3-0.7,0.5-1.3,0.9-2c0.3-0.7,0.7-1.4,1-2.1c0.3-0.7,0.7-1.3,1-2
				c0.6-1.2,1.4-2.4,2-3.7c0,0,0-0.1,0-0.1l0,0c0.2-0.5,0.3-0.9,0.3-1.2c0-0.5-0.1-0.9-0.4-1.3c-0.2-0.4-0.5-0.7-0.9-0.9
				c-0.4-0.2-0.8-0.4-1.2-0.5c-0.4-0.1-0.8-0.2-1.2-0.2c-1,0-2,0.1-3,0.3c-1,0.2-1.9,0.5-2.8,0.9c-0.9,0.4-1.7,0.8-2.4,1.3
				c-0.7,0.5-1.4,1.1-1.9,1.6c-0.5,0.6-1,1.2-1.3,1.8c-0.3,0.6-0.5,1.2-0.5,1.8c0,0.6,0.1,1.2,0.4,1.7c0.3,0.5,0.6,0.9,1,1.2
				c0.4,0.3,0.9,0.6,1.4,0.7c0.5,0.2,1,0.2,1.5,0.2c0.2,0,0.4,0,0.7-0.1c0.3-0.1,0.6-0.1,0.9-0.3c0.3-0.1,0.6-0.3,0.8-0.4
				c0.2-0.2,0.3-0.4,0.3-0.6s-0.1-0.3-0.2-0.3c-0.1,0.1-0.3,0.2-0.6,0.3c-0.3,0.2-0.6,0.3-0.9,0.5c-0.4,0.2-0.8,0.3-1.3,0.3
				c-0.2,0-0.4,0-0.7-0.1c-0.3-0.1-0.5-0.2-0.7-0.3c-0.2-0.1-0.4-0.3-0.6-0.6c-0.2-0.3-0.2-0.6-0.2-1c0-0.6,0.1-1.2,0.4-1.8
				c0.3-0.6,0.7-1.3,1.1-1.9c0.5-0.6,1.1-1.2,1.7-1.8c0.7-0.6,1.4-1.1,2.1-1.5c0.1-0.1,0.3-0.2,0.4-0.2c4-2,4.9-0.4,4.9-0.4
				c0.6,0.7-0.8,2.7-1.2,3.5c-0.4,0.8-0.9,1.6-1.3,2.5c-0.4,0.9-0.8,1.8-1.2,2.8c-0.4,0.9-0.7,1.9-1,2.7c-0.3,0.9-0.5,1.7-0.7,2.5
				c-0.2,0.8-0.3,1.6-0.3,2.3c0,0.8,0.2,1.5,0.6,2.3c0.2,0.4,0.5,0.7,0.8,1c0.3,0.3,0.7,0.4,1.2,0.4c0.5,0,0.8-0.1,1-0.4l1.8-2.6
				c0.7-1,1.9-2.7,3.7-5c0.7-0.9,1.5-1.8,2.2-2.6c-0.8,2-1.2,4-1.2,6.1c0,1.3,0.3,2.3,0.8,3.1c0.6,0.9,1.5,1.4,2.7,1.4
				c1.3,0,2.7-0.5,4.2-1.4c0.7-0.5,1.4-1,2.1-1.6c0.7-0.6,1.3-1.3,1.9-2.1c0.6-0.8,1.2-1.6,1.7-2.5c0.5-0.9,1-1.8,1.3-2.8
				c0.4-1,0.7-2,0.9-3C80.3,121.2,80.4,120.2,80.4,119.4z"/>
		</g>
	</g>
</g>
<g>
	<path class="st2" d="M250.5,124.7c-2.1,0-4.1,0.7-6,2.2c-0.9,0.7-1.7,1.5-2.4,2.4c-0.7,0.9-1.4,1.9-1.9,3c-0.5,1.1-0.9,2.1-1.2,3.3
		c-0.3,1.1-0.4,2.2-0.4,3.3c0,1.1,0.2,2.1,0.5,2.9c0.3,0.8,0.7,1.5,1.3,2c0.6,0.5,1.2,0.9,2,1.2c0.8,0.2,1.6,0.4,2.6,0.4
		c1,0,1.9-0.2,2.9-0.6c2-0.8,3.7-2.1,5.2-4c1.5-1.9,2.5-3.9,3-6.2c0.6-2.4,0.6-4.5-0.1-6.2C255.1,125.9,253.2,124.7,250.5,124.7z
		 M251,135.6c-0.4,1-0.8,1.9-1.3,2.8c-0.5,0.9-1,1.7-1.6,2.4c-0.6,0.7-1.1,1.2-1.7,1.6c-0.6,0.4-1.2,0.6-1.8,0.6
		c-0.6,0-1-0.3-1.3-0.8c-0.3-0.5-0.4-1.2-0.4-2.1c0-0.9,0.1-1.9,0.3-2.9s0.5-2,0.9-3c0.4-1,0.8-1.9,1.4-2.8c0.5-0.9,1-1.6,1.6-2.3
		c0.6-0.7,1.1-1.2,1.7-1.6c0.6-0.4,1-0.6,1.5-0.6s0.8,0.1,1,0.2c0.6,0.4,0.9,1.3,0.9,2.8C252.2,131.6,251.8,133.5,251,135.6z"/>
	<path class="st2" d="M288.6,129.6c0.4-0.7,0.5-1.5,0.5-2.3c0-0.9-0.5-1.8-1.2-2.3c-1.1-0.8-2.4-1-3.8-1c-0.2,0-2.2,0-1.7,0.5
		c0.5,0.5,1.6,0.6,2.2,1c3.1,2-2.1,5.4-3.6,6.5c-0.8,0.6-1.7,1.1-2.6,1.5c-0.5,0.2-1.8,0.4-2.1,1c0.1-0.3,0.3-0.7,0.6-1.3l1.9-5.1
		c0.4-1.2,1.1-3.1,1.9-5.9c0.3-1.1,0.6-2.1,0.8-3c0.2-1,0.4-1.9,0.6-2.7c0.2-0.8,0.2-1.5,0.3-2.2c0-0.7-0.3-1.3-1-1.8
		c-0.4-0.3-0.8-0.4-1.4-0.4c-0.9,0-1.5,0.6-1.6,1.7c-0.3,2.3-0.9,4.9-1.6,7.7c-2,7.8-4.2,14.2-6.7,19.2l-0.5,1c0,0-0.1,0-0.1,0.1
		c-1.4,1.2-3.1,2.2-5,2c-1.6-0.1-2.2-1.3-2.2-2.8c0-1.3,0.8-4.3,2.3-8.8l2.7-8c0.5-1.3,0.9-2.6,1.2-3.8c0.4-1.2,0.6-2.3,0.9-3.3
		c0.2-1,0.3-1.9,0.4-2.6c0-0.7-0.3-1.4-1.1-1.9c-0.4-0.3-0.9-0.4-1.5-0.4c-1,0-1.5,0.6-1.6,1.7c-0.4,3.7-1.7,9-4.1,15.8l-1.7,4.9
		c-0.5,1.5-0.9,2.9-1.2,4c-0.3,1.2-0.5,2.1-0.5,2.8c0,0.7,0.1,1.3,0.3,1.9c0.2,0.5,0.5,1,0.8,1.3c0.3,0.3,0.7,0.6,1.1,0.7
		c0.4,0.2,0.9,0.2,1.6,0.2c1.7,0,3.3-0.4,4.9-1.2c0.7-0.4,1.6-0.8,2.2-1.5c-0.1,0.3-0.2,0.5-0.2,0.7c0,0.5,0.2,1,0.7,1.4
		c0.2,0.2,0.5,0.4,0.8,0.5c0.3,0.1,0.6,0.2,1,0.2s0.7-0.2,1-0.6c0.3-0.4,0.6-1,1-1.7l1.2-2.7c0.5-1.1,1-2.2,1.7-3.5
		c1.8,5.7,4.1,8.5,7.1,8.5c1.1,0,2.1-0.3,3-1c0.3-0.3,0.6-0.6,0.8-0.8c0.2-0.3,0.4-0.6,0.5-0.8c0.1-0.3,0.2-0.6,0.2-0.9
		c0-0.4-0.2-0.6-0.5-0.6c-0.1,0-0.3,0-0.4,0.1l-0.7,0.4c-0.3,0.2-0.7,0.2-1.2,0.2c-0.9,0-1.8-0.6-2.9-1.9c-1.1-1.3-1.8-2.9-2.2-4.6
		c3.3-1.2,5.6-2.4,7.1-3.7C287.7,131,288.2,130.3,288.6,129.6z"/>
	<g>
		<path class="st2" d="M240.2,121.6c0-1.2-0.1-2.2-0.2-3c-0.5-2.3-1.3-3.5-2.6-3.5c-1,0-1.9,0.3-2.7,1c-0.8,0.6-1,1.1-0.8,1.5
			c1,1.5,1.5,3.4,1.5,5.6c0,2.8-0.7,5.8-2.2,9c-0.6,1.4-1.4,2.7-2.2,4c-0.8,1.2-1.7,2.3-2.6,3.2c-0.9,0.9-1.8,1.6-2.6,2.2
			c-0.9,0.5-1.7,0.8-2.4,0.8c-0.7,0-1.2-0.3-1.6-1c-0.2-0.3-0.3-0.6-0.3-0.9c-0.1-0.3-0.1-0.9-0.1-1.8c0-0.9,0.1-2.1,0.4-3.7
			c0.9-5,2.7-8.9,5.3-11.7l0.7-0.7c0.1-0.2,0.2-0.3,0.2-0.5c0-0.4-0.3-0.7-0.9-1c-0.2-0.1-0.5-0.2-0.8-0.3c-0.3-0.1-0.5-0.1-0.8-0.1
			c-0.2,0-0.5,0-0.7,0.1c-1.1,0.6-2.3,1.3-3.4,2.3c-4.1,3.4-8.2,8.5-12.4,15.3l-2.1,3.4c-0.2-0.6-0.2-1.3-0.2-2.1
			c0-1.5,0.4-3.3,1.2-5.4c0.4-0.9,0.8-1.9,1.3-2.9c0.5-1,0.9-2,1.4-3c0.5-1,0.9-2,1.4-2.9c0.9-1.8,2.1-3.5,2.9-5.4
			c0-0.1,0-0.1,0.1-0.2l0,0c0.3-0.7,0.4-1.3,0.4-1.7c0-0.7-0.2-1.4-0.5-1.9c-0.3-0.5-0.8-0.9-1.3-1.3c-0.5-0.3-1.1-0.6-1.7-0.7
			c-0.6-0.1-1.2-0.2-1.8-0.2c-1.5,0-2.9,0.2-4.3,0.5c-1.4,0.3-2.8,0.8-4,1.3c-1.3,0.5-2.4,1.2-3.5,1.9c-1.1,0.7-2,1.5-2.8,2.4
			c-0.8,0.8-1.4,1.7-1.8,2.6c-0.4,0.9-0.7,1.7-0.7,2.5c0,0.9,0.2,1.8,0.6,2.5c0.4,0.7,0.9,1.3,1.5,1.8c0.6,0.5,1.3,0.8,2,1.1
			c0.8,0.2,1.5,0.4,2.2,0.4c0.2,0,0.6,0,1-0.1c0.4-0.1,0.9-0.2,1.3-0.4c0.4-0.2,0.8-0.4,1.1-0.6c0.3-0.3,0.5-0.6,0.5-0.9
			c0-0.4-0.1-0.5-0.3-0.4c-0.2,0.1-0.5,0.3-0.8,0.5c-0.4,0.2-0.8,0.5-1.4,0.7c-0.5,0.3-1.2,0.4-1.9,0.4c-0.3,0-0.6,0-1-0.1
			c-0.4-0.1-0.7-0.2-1.1-0.4c-0.3-0.2-0.6-0.5-0.8-0.9c-0.2-0.4-0.3-0.8-0.3-1.4c0-0.8,0.2-1.7,0.6-2.6c0.4-0.9,1-1.8,1.6-2.8
			c0.7-0.9,1.5-1.8,2.5-2.6c1-0.8,2-1.6,3.1-2.2c0.2-0.1,0.4-0.2,0.6-0.3c5.7-2.9,7.1-0.5,7.1-0.5c0.8,1-1.2,3.9-1.8,5
			c-0.6,1.2-1.3,2.4-1.8,3.5c-0.6,1.3-1.2,2.7-1.8,4c-0.6,1.3-1,2.7-1.5,4c-0.4,1.3-0.8,2.5-1,3.7c-0.2,1.2-0.4,2.3-0.4,3.4
			s0.3,2.2,0.9,3.3c0.3,0.6,0.7,1,1.1,1.4c0.5,0.4,1,0.6,1.7,0.6c0.7,0,1.1-0.2,1.4-0.6l2.6-3.7c1-1.5,2.8-3.9,5.4-7.2
			c1-1.3,2.1-2.6,3.2-3.8c-1.2,2.8-1.8,5.8-1.8,8.8c0,1.8,0.4,3.3,1.1,4.5c0.9,1.4,2.1,2,3.9,2c1.9,0,3.9-0.7,6-2.1
			c1-0.7,2-1.4,3-2.4c1-0.9,1.9-2,2.8-3.1c0.9-1.1,1.7-2.3,2.4-3.6c0.7-1.3,1.4-2.7,1.9-4.1c0.5-1.4,1-2.9,1.3-4.3
			C240,124.2,240.2,122.8,240.2,121.6z"/>
	</g>
</g>
</svg>
