<?xml version="1.0" encoding="utf-8"?>
<!-- Generator: Adobe Illustrator 19.2.1, SVG Export Plug-In . SVG Version: 6.00 Build 0)  -->
<svg version="1.1" id="레이어_1" xmlns="http://www.w3.org/2000/svg" xmlns:xlink="http://www.w3.org/1999/xlink" x="0px"
	 y="0px" viewBox="0 0 100 50" style="enable-background:new 0 0 100 50;" xml:space="preserve">
<style type="text/css">
	.st0{fill:#4A0B23;}
	.st1{fill:#490822;}
	.st2{fill:#FFFFFF;}
</style>
<g>
	<g>
		<path class="st0" d="M-183.9-34.5c-0.1,0.8-0.4,1.3-0.8,1.7c-0.5,0.4-1.1,0.6-1.9,0.6c-0.8,0-1.5-0.3-2-0.9
			c-0.5-0.6-0.8-1.4-0.8-2.4v-0.7c0-0.7,0.1-1.2,0.4-1.7c0.2-0.5,0.6-0.9,1-1.2s0.9-0.4,1.5-0.4c0.8,0,1.4,0.2,1.8,0.6
			c0.5,0.4,0.7,1,0.8,1.8h-0.9c-0.1-0.6-0.3-1-0.5-1.2c-0.3-0.3-0.7-0.4-1.1-0.4c-0.6,0-1.1,0.2-1.4,0.7s-0.5,1.1-0.5,1.9v0.7
			c0,0.8,0.2,1.4,0.5,1.8s0.8,0.7,1.4,0.7c0.5,0,0.9-0.1,1.2-0.4c0.3-0.2,0.5-0.6,0.6-1.2H-183.9z"/>
		<path class="st0" d="M-177.1-39.4v4.8c0,0.7-0.2,1.2-0.6,1.6c-0.4,0.4-1,0.7-1.7,0.7l-0.2,0c-0.8,0-1.4-0.2-1.9-0.6
			s-0.7-1-0.7-1.7v-4.8h0.9v4.8c0,0.5,0.1,0.9,0.4,1.2c0.3,0.3,0.7,0.4,1.2,0.4c0.5,0,0.9-0.1,1.2-0.4s0.4-0.7,0.4-1.2v-4.8H-177.1z
			"/>
		<path class="st0" d="M-173-35.5c-0.8-0.2-1.4-0.5-1.8-0.9s-0.5-0.8-0.5-1.2c0-0.6,0.2-1,0.7-1.4s1-0.5,1.7-0.5
			c0.5,0,0.9,0.1,1.3,0.3c0.4,0.2,0.7,0.4,0.9,0.8s0.3,0.7,0.3,1.1h-0.9c0-0.4-0.1-0.8-0.4-1c-0.3-0.2-0.7-0.4-1.2-0.4
			c-0.5,0-0.8,0.1-1.1,0.3c-0.3,0.2-0.4,0.5-0.4,0.8c0,0.3,0.1,0.5,0.4,0.7c0.2,0.2,0.7,0.4,1.3,0.6c0.6,0.2,1.1,0.3,1.4,0.5
			s0.6,0.4,0.7,0.7c0.2,0.3,0.2,0.6,0.2,0.9c0,0.6-0.2,1-0.7,1.4s-1,0.5-1.8,0.5c-0.5,0-0.9-0.1-1.4-0.3c-0.4-0.2-0.7-0.4-1-0.8
			c-0.2-0.3-0.3-0.7-0.3-1.1h0.9c0,0.4,0.2,0.8,0.5,1s0.7,0.4,1.3,0.4c0.5,0,0.9-0.1,1.1-0.3c0.3-0.2,0.4-0.5,0.4-0.8
			c0-0.3-0.1-0.6-0.4-0.8S-172.4-35.3-173-35.5z"/>
		<path class="st0" d="M-163.7-38.6h-2.3v6.3h-0.9v-6.3h-2.3v-0.8h5.5V-38.6z"/>
		<path class="st0" d="M-156.7-35.6c0,0.7-0.1,1.3-0.4,1.8c-0.2,0.5-0.6,0.9-1,1.2s-0.9,0.4-1.5,0.4c-0.6,0-1.1-0.1-1.5-0.4
			c-0.4-0.3-0.8-0.7-1-1.2c-0.2-0.5-0.4-1.1-0.4-1.8v-0.5c0-0.7,0.1-1.3,0.4-1.8c0.2-0.5,0.6-0.9,1-1.2s0.9-0.4,1.5-0.4
			c0.6,0,1.1,0.1,1.5,0.4c0.4,0.3,0.8,0.7,1,1.2s0.4,1.1,0.4,1.8V-35.6z M-157.7-36.1c0-0.8-0.2-1.5-0.5-1.9
			c-0.3-0.5-0.8-0.7-1.4-0.7c-0.6,0-1.1,0.2-1.4,0.7c-0.3,0.5-0.5,1.1-0.5,1.9v0.5c0,0.8,0.2,1.5,0.5,1.9c0.3,0.5,0.8,0.7,1.4,0.7
			c0.6,0,1.1-0.2,1.4-0.7c0.3-0.4,0.5-1.1,0.5-1.9V-36.1z"/>
		<path class="st0" d="M-153.6-39.4l2.3,5.8l2.3-5.8h1.2v7.1h-0.9v-2.8l0.1-3l-2.3,5.8h-0.7L-154-38l0.1,3v2.8h-0.9v-7.1H-153.6z"/>
		<path class="st0" d="M-137.1-32.3h-0.9v-3.3h-3.6v3.3h-0.9v-7.1h0.9v3.1h3.6v-3.1h0.9V-32.3z"/>
		<path class="st0" d="M-131.1-34.1h-3l-0.7,1.9h-1l2.7-7.1h0.8l2.7,7.1h-1L-131.1-34.1z M-133.8-34.9h2.4l-1.2-3.3L-133.8-34.9z"/>
		<path class="st0" d="M-122.5-32.3h-0.9l-3.6-5.5v5.5h-0.9v-7.1h0.9l3.6,5.5v-5.5h0.9V-32.3z"/>
		<path class="st0" d="M-120.3-32.3v-7.1h2c0.6,0,1.2,0.1,1.6,0.4s0.8,0.7,1.1,1.2c0.3,0.5,0.4,1.1,0.4,1.7v0.5
			c0,0.7-0.1,1.3-0.4,1.8c-0.3,0.5-0.6,0.9-1.1,1.2c-0.5,0.3-1,0.4-1.7,0.4H-120.3z M-119.4-38.6v5.6h1c0.7,0,1.3-0.2,1.7-0.7
			c0.4-0.5,0.6-1.1,0.6-1.9v-0.4c0-0.8-0.2-1.4-0.6-1.9c-0.4-0.4-0.9-0.7-1.6-0.7H-119.4z"/>
		<path class="st0" d="M-108-34.5c-0.1,0.8-0.4,1.3-0.8,1.7c-0.5,0.4-1.1,0.6-1.9,0.6c-0.8,0-1.5-0.3-2-0.9
			c-0.5-0.6-0.8-1.4-0.8-2.4v-0.7c0-0.7,0.1-1.2,0.4-1.7c0.2-0.5,0.6-0.9,1-1.2s0.9-0.4,1.5-0.4c0.8,0,1.4,0.2,1.8,0.6
			c0.5,0.4,0.7,1,0.8,1.8h-0.9c-0.1-0.6-0.3-1-0.5-1.2c-0.3-0.3-0.7-0.4-1.1-0.4c-0.6,0-1.1,0.2-1.4,0.7s-0.5,1.1-0.5,1.9v0.7
			c0,0.8,0.2,1.4,0.5,1.8s0.8,0.7,1.4,0.7c0.5,0,0.9-0.1,1.2-0.4c0.3-0.2,0.5-0.6,0.6-1.2H-108z"/>
		<path class="st0" d="M-103.7-35.2h-1.7v2.9h-0.9v-7.1h2.4c0.8,0,1.4,0.2,1.8,0.5c0.4,0.4,0.6,0.9,0.6,1.6c0,0.4-0.1,0.8-0.4,1.2
			c-0.2,0.3-0.6,0.6-1,0.7l1.7,3v0.1h-1L-103.7-35.2z M-105.3-35.9h1.4c0.5,0,0.8-0.1,1.1-0.4c0.3-0.2,0.4-0.6,0.4-1
			c0-0.4-0.1-0.8-0.4-1c-0.3-0.2-0.6-0.4-1.1-0.4h-1.4V-35.9z"/>
		<path class="st0" d="M-95.7-34.1h-3l-0.7,1.9h-1l2.7-7.1h0.8l2.7,7.1h-1L-95.7-34.1z M-98.4-34.9h2.4l-1.2-3.3L-98.4-34.9z"/>
		<path class="st0" d="M-88.7-35.4h-3v3.1h-0.9v-7.1h4.4v0.8h-3.5v2.4h3V-35.4z"/>
		<path class="st0" d="M-81.6-38.6h-2.3v6.3h-0.9v-6.3h-2.3v-0.8h5.5V-38.6z"/>
		<path class="st0" d="M-76.1-35.6h-3.1v2.5h3.6v0.8h-4.5v-7.1h4.5v0.8h-3.5v2.3h3.1V-35.6z"/>
		<path class="st0" d="M-73.9-32.3v-7.1h2c0.6,0,1.2,0.1,1.6,0.4c0.5,0.3,0.8,0.7,1.1,1.2c0.3,0.5,0.4,1.1,0.4,1.7v0.5
			c0,0.7-0.1,1.3-0.4,1.8c-0.3,0.5-0.6,0.9-1.1,1.2c-0.5,0.3-1,0.4-1.7,0.4H-73.9z M-73-38.6v5.6h1c0.7,0,1.3-0.2,1.7-0.7
			c0.4-0.5,0.6-1.1,0.6-1.9v-0.4c0-0.8-0.2-1.4-0.6-1.9c-0.4-0.4-0.9-0.7-1.6-0.7H-73z"/>
		<path class="st0" d="M-61.8-35.5c-0.8-0.2-1.4-0.5-1.8-0.9s-0.5-0.8-0.5-1.2c0-0.6,0.2-1,0.7-1.4c0.4-0.4,1-0.5,1.7-0.5
			c0.5,0,0.9,0.1,1.3,0.3c0.4,0.2,0.7,0.4,0.9,0.8s0.3,0.7,0.3,1.1h-0.9c0-0.4-0.1-0.8-0.4-1c-0.3-0.2-0.7-0.4-1.2-0.4
			c-0.5,0-0.8,0.1-1.1,0.3c-0.3,0.2-0.4,0.5-0.4,0.8c0,0.3,0.1,0.5,0.4,0.7c0.2,0.2,0.7,0.4,1.3,0.6c0.6,0.2,1.1,0.3,1.4,0.5
			c0.3,0.2,0.6,0.4,0.7,0.7c0.2,0.3,0.2,0.6,0.2,0.9c0,0.6-0.2,1-0.7,1.4s-1,0.5-1.8,0.5c-0.5,0-0.9-0.1-1.4-0.3
			c-0.4-0.2-0.7-0.4-1-0.8c-0.2-0.3-0.3-0.7-0.3-1.1h0.9c0,0.4,0.2,0.8,0.5,1s0.7,0.4,1.3,0.4c0.5,0,0.9-0.1,1.1-0.3
			c0.3-0.2,0.4-0.5,0.4-0.8c0-0.3-0.1-0.6-0.4-0.8S-61.1-35.3-61.8-35.5z"/>
		<path class="st0" d="M-52-32.3h-0.9v-3.3h-3.6v3.3h-0.9v-7.1h0.9v3.1h3.6v-3.1h0.9V-32.3z"/>
		<path class="st0" d="M-44.3-35.6c0,0.7-0.1,1.3-0.4,1.8c-0.2,0.5-0.6,0.9-1,1.2s-0.9,0.4-1.5,0.4c-0.6,0-1.1-0.1-1.5-0.4
			c-0.4-0.3-0.8-0.7-1-1.2c-0.2-0.5-0.4-1.1-0.4-1.8v-0.5c0-0.7,0.1-1.3,0.4-1.8c0.2-0.5,0.6-0.9,1-1.2s0.9-0.4,1.5-0.4
			c0.6,0,1.1,0.1,1.5,0.4c0.4,0.3,0.8,0.7,1,1.2s0.4,1.1,0.4,1.8V-35.6z M-45.3-36.1c0-0.8-0.2-1.5-0.5-1.9
			c-0.3-0.5-0.8-0.7-1.4-0.7c-0.6,0-1.1,0.2-1.4,0.7c-0.3,0.5-0.5,1.1-0.5,1.9v0.5c0,0.8,0.2,1.5,0.5,1.9c0.3,0.5,0.8,0.7,1.4,0.7
			c0.6,0,1.1-0.2,1.4-0.7c0.3-0.4,0.5-1.1,0.5-1.9V-36.1z"/>
		<path class="st0" d="M-38.4-35.6h-3.1v2.5h3.6v0.8h-4.5v-7.1h4.5v0.8h-3.5v2.3h3.1V-35.6z"/>
		<path class="st0" d="M-34.2-35.5c-0.8-0.2-1.4-0.5-1.8-0.9s-0.5-0.8-0.5-1.2c0-0.6,0.2-1,0.7-1.4c0.4-0.4,1-0.5,1.7-0.5
			c0.5,0,0.9,0.1,1.3,0.3c0.4,0.2,0.7,0.4,0.9,0.8s0.3,0.7,0.3,1.1h-0.9c0-0.4-0.1-0.8-0.4-1c-0.3-0.2-0.7-0.4-1.2-0.4
			c-0.5,0-0.8,0.1-1.1,0.3c-0.3,0.2-0.4,0.5-0.4,0.8c0,0.3,0.1,0.5,0.4,0.7c0.2,0.2,0.7,0.4,1.3,0.6c0.6,0.2,1.1,0.3,1.4,0.5
			c0.3,0.2,0.6,0.4,0.7,0.7c0.2,0.3,0.2,0.6,0.2,0.9c0,0.6-0.2,1-0.7,1.4s-1,0.5-1.8,0.5c-0.5,0-0.9-0.1-1.4-0.3
			c-0.4-0.2-0.7-0.4-1-0.8c-0.2-0.3-0.3-0.7-0.3-1.1h0.9c0,0.4,0.2,0.8,0.5,1S-34.5-33-34-33c0.5,0,0.9-0.1,1.1-0.3
			c0.3-0.2,0.4-0.5,0.4-0.8c0-0.3-0.1-0.6-0.4-0.8S-33.5-35.3-34.2-35.5z"/>
	</g>
	<g>
		<path class="st1" d="M-97.4-77.2c-2.8,0-5.5,1-8.1,3c-1.2,0.9-2.3,2-3.3,3.3c-1,1.3-1.8,2.6-2.6,4c-0.7,1.4-1.3,2.9-1.6,4.5
			c-0.4,1.5-0.6,3.1-0.6,4.6s0.2,2.8,0.7,3.9c0.4,1.1,1,2,1.8,2.7c0.8,0.7,1.6,1.2,2.7,1.6s2.2,0.5,3.5,0.5c1.3,0,2.7-0.3,4-0.8
			c2.7-1.1,5-2.9,7-5.5c2-2.6,3.4-5.4,4.1-8.4c0.8-3.3,0.8-6.2-0.2-8.5C-91.2-75.6-93.7-77.2-97.4-77.2z M-96.8-62.4
			c-0.5,1.3-1.1,2.6-1.7,3.8c-0.7,1.2-1.4,2.3-2.1,3.2c-0.8,0.9-1.5,1.7-2.3,2.2c-0.8,0.6-1.6,0.8-2.4,0.8s-1.4-0.4-1.8-1.1
			c-0.4-0.7-0.6-1.7-0.6-2.9c0-1.2,0.1-2.6,0.4-4s0.7-2.8,1.3-4.1c0.5-1.3,1.2-2.6,1.9-3.8c0.7-1.2,1.4-2.2,2.2-3.1
			c0.8-0.9,1.5-1.6,2.3-2.1c0.8-0.5,1.4-0.8,2-0.8s1,0.1,1.4,0.3c0.8,0.5,1.2,1.8,1.2,3.8C-95.1-67.8-95.7-65.3-96.8-62.4z"/>
		<path class="st1" d="M-45.6-70.5c0.5-1,0.7-2,0.7-3.2c0-1.2-0.7-2.5-1.7-3.2c-1.5-1.1-3.3-1.4-5.1-1.4c-0.3,0-3,0-2.3,0.6
			c0.7,0.7,2.1,0.8,3,1.4c4.2,2.7-2.8,7.4-5,8.8c-1.1,0.8-2.4,1.5-3.6,2c-0.7,0.3-2.5,0.6-2.8,1.3c0.2-0.4,0.4-1,0.8-1.8l2.5-7
			c0.6-1.6,1.4-4.3,2.6-8c0.4-1.4,0.8-2.8,1.2-4.1c0.3-1.3,0.6-2.5,0.8-3.6c0.2-1.1,0.3-2.1,0.4-3c0-0.9-0.4-1.7-1.4-2.5
			c-0.5-0.4-1.1-0.6-1.9-0.6c-1.3,0-2,0.8-2.2,2.3c-0.4,3.1-1.2,6.6-2.2,10.5c-2.7,10.6-5.8,19.3-9.1,26.2l-0.7,1.4
			c0,0-0.1,0.1-0.1,0.1c-1.9,1.6-4.2,3-6.8,2.8c-2.2-0.2-3-1.8-3-3.8c0-1.8,1.1-5.8,3.2-12l3.7-10.9c0.6-1.8,1.2-3.6,1.7-5.2
			c0.5-1.6,0.9-3.2,1.2-4.5c0.3-1.4,0.5-2.6,0.5-3.5s-0.5-1.8-1.5-2.6c-0.5-0.4-1.2-0.6-2-0.6c-1.3,0-2,0.8-2.2,2.3
			c-0.5,5.1-2.4,12.3-5.6,21.6l-2.3,6.7c-0.7,2.1-1.2,3.9-1.7,5.5s-0.7,2.9-0.7,3.9c0,1,0.1,1.8,0.4,2.5c0.3,0.7,0.6,1.3,1.1,1.8
			c0.4,0.5,0.9,0.8,1.5,1s1.3,0.3,2.2,0.3c2.3,0,4.6-0.6,6.6-1.7c1-0.5,2.2-1.1,3-2c-0.2,0.4-0.3,0.7-0.3,0.9c0,0.7,0.3,1.3,0.9,1.9
			c0.3,0.3,0.7,0.5,1.1,0.7c0.4,0.2,0.9,0.3,1.4,0.3s1-0.3,1.4-0.8c0.4-0.6,0.8-1.3,1.3-2.3L-65-56c0.6-1.4,1.4-3,2.4-4.8
			c2.4,7.7,5.7,11.6,9.7,11.6c1.5,0,2.9-0.5,4-1.4c0.5-0.4,0.8-0.8,1.1-1.2c0.3-0.4,0.5-0.8,0.7-1.1c0.2-0.3,0.2-0.8,0.2-1.2
			c0-0.5-0.2-0.8-0.7-0.8c-0.2,0-0.4,0.1-0.6,0.2l-1,0.5c-0.4,0.2-1,0.3-1.6,0.3c-1.2,0-2.5-0.9-3.9-2.6c-1.5-1.8-2.5-3.9-3.1-6.3
			c4.5-1.6,7.7-3.3,9.7-5C-46.8-68.6-46-69.6-45.6-70.5z"/>
		<g>
			<path class="st1" d="M-111.5-81.4c0-1.7-0.1-3-0.3-4.1c-0.6-3.2-1.8-4.7-3.6-4.7c-1.3,0-2.6,0.4-3.6,1.3c-1.1,0.9-1.4,1.6-1,2.1
				c1.3,2.1,2,4.6,2,7.6c0,3.9-1,8-3,12.2c-0.9,1.9-1.9,3.7-3,5.4c-1.1,1.7-2.3,3.2-3.5,4.4c-1.2,1.3-2.4,2.2-3.6,3
				c-1.2,0.7-2.3,1.1-3.2,1.1s-1.7-0.4-2.2-1.3c-0.2-0.4-0.4-0.8-0.4-1.3c-0.1-0.4-0.1-1.3-0.1-2.5c0-1.2,0.2-2.9,0.6-5
				c1.2-6.8,3.6-12.1,7.2-15.9l0.9-1c0.2-0.2,0.3-0.4,0.3-0.7c0-0.5-0.4-1-1.2-1.4c-0.3-0.2-0.7-0.3-1.1-0.4
				c-0.4-0.1-0.7-0.1-1.1-0.1c-0.3,0-0.6,0.1-0.9,0.2c-1.5,0.8-3.1,1.8-4.7,3.1c-5.6,4.7-11.2,11.6-17,20.8l-2.8,4.7
				c-0.2-0.8-0.3-1.8-0.3-2.9c0-2,0.5-4.4,1.6-7.3c0.5-1.3,1.1-2.6,1.7-4c0.6-1.4,1.3-2.7,1.9-4.1c0.6-1.4,1.3-2.7,1.9-3.9
				c1.3-2.4,2.9-4.8,3.9-7.4c0-0.1,0.1-0.1,0.1-0.2l0,0c0.3-0.9,0.5-1.7,0.5-2.4c0-1-0.2-1.9-0.7-2.6c-0.5-0.7-1.1-1.3-1.8-1.7
				c-0.7-0.4-1.5-0.8-2.3-1c-0.9-0.2-1.7-0.3-2.4-0.3c-2,0-4,0.2-5.9,0.7c-1.9,0.4-3.8,1-5.5,1.8c-1.7,0.7-3.3,1.6-4.8,2.6
				c-1.5,1-2.7,2.1-3.8,3.2c-1.1,1.1-1.9,2.3-2.5,3.5c-0.6,1.2-0.9,2.3-0.9,3.5c0,1.3,0.3,2.4,0.8,3.4c0.5,1,1.2,1.8,2,2.4
				c0.8,0.7,1.7,1.1,2.8,1.5c1,0.3,2,0.5,3,0.5c0.3,0,0.8-0.1,1.4-0.2c0.6-0.1,1.2-0.3,1.8-0.5c0.6-0.2,1.1-0.5,1.5-0.9
				c0.4-0.4,0.7-0.8,0.7-1.3s-0.1-0.7-0.4-0.5c-0.3,0.1-0.6,0.3-1.2,0.7c-0.5,0.3-1.1,0.7-1.9,1c-0.7,0.4-1.6,0.5-2.6,0.5
				c-0.4,0-0.9-0.1-1.4-0.2c-0.5-0.1-1-0.3-1.5-0.6c-0.5-0.3-0.8-0.7-1.1-1.2c-0.3-0.5-0.5-1.1-0.5-1.9c0-1.1,0.3-2.3,0.8-3.6
				c0.5-1.3,1.3-2.5,2.2-3.8c1-1.2,2.1-2.4,3.4-3.6c1.3-1.1,2.7-2.2,4.2-3c0.3-0.2,0.6-0.3,0.8-0.5c7.8-3.9,9.7-0.7,9.7-0.7
				c1.1,1.4-1.6,5.4-2.4,6.8c-0.9,1.6-1.7,3.2-2.5,4.8c-0.9,1.7-1.7,3.6-2.4,5.5c-0.8,1.8-1.4,3.7-2,5.4c-0.6,1.7-1,3.4-1.4,5
				c-0.3,1.6-0.5,3.1-0.5,4.6s0.4,3,1.2,4.5c0.4,0.8,0.9,1.4,1.6,1.9c0.6,0.5,1.4,0.8,2.3,0.8c0.9,0,1.5-0.3,1.9-0.8l3.5-5.1
				c1.4-2,3.8-5.3,7.3-9.9c1.4-1.8,2.9-3.5,4.4-5.2c-1.6,3.9-2.4,7.9-2.4,12c0,2.5,0.5,4.5,1.5,6.1c1.2,1.9,2.9,2.8,5.3,2.8
				c2.6,0,5.3-0.9,8.2-2.8c1.4-0.9,2.8-2,4.1-3.2c1.3-1.3,2.6-2.7,3.8-4.2c1.2-1.5,2.3-3.2,3.3-5s1.9-3.6,2.6-5.5
				c0.7-1.9,1.3-3.9,1.7-5.9C-111.7-77.9-111.5-79.8-111.5-81.4z"/>
		</g>
	</g>
</g>
<g>
	<g>
		<path class="st0" d="M-147.8,39.7c0,0.4-0.2,0.7-0.4,0.9c-0.2,0.2-0.6,0.3-0.9,0.3c-0.4,0-0.8-0.2-1-0.5c-0.3-0.3-0.4-0.7-0.4-1.2
			v-0.3c0-0.3,0.1-0.6,0.2-0.9c0.1-0.3,0.3-0.4,0.5-0.6c0.2-0.1,0.5-0.2,0.8-0.2c0.4,0,0.7,0.1,0.9,0.3c0.2,0.2,0.4,0.5,0.4,0.9
			h-0.5c0-0.3-0.1-0.5-0.3-0.6c-0.1-0.1-0.3-0.2-0.6-0.2c-0.3,0-0.5,0.1-0.7,0.3c-0.2,0.2-0.3,0.5-0.3,1v0.3c0,0.4,0.1,0.7,0.2,0.9
			c0.2,0.2,0.4,0.3,0.7,0.3c0.3,0,0.5-0.1,0.6-0.2c0.1-0.1,0.2-0.3,0.3-0.6H-147.8z"/>
		<path class="st0" d="M-144.4,37.2v2.5c0,0.3-0.1,0.6-0.3,0.8c-0.2,0.2-0.5,0.3-0.9,0.4l-0.1,0c-0.4,0-0.7-0.1-0.9-0.3
			c-0.2-0.2-0.4-0.5-0.4-0.9v-2.5h0.5v2.4c0,0.3,0.1,0.5,0.2,0.6c0.1,0.1,0.3,0.2,0.6,0.2c0.3,0,0.5-0.1,0.6-0.2
			c0.1-0.1,0.2-0.3,0.2-0.6v-2.4H-144.4z"/>
		<path class="st0" d="M-142.3,39.2c-0.4-0.1-0.7-0.3-0.9-0.4c-0.2-0.2-0.3-0.4-0.3-0.6c0-0.3,0.1-0.5,0.3-0.7
			c0.2-0.2,0.5-0.3,0.9-0.3c0.2,0,0.5,0,0.7,0.1c0.2,0.1,0.3,0.2,0.5,0.4c0.1,0.2,0.2,0.4,0.2,0.6h-0.5c0-0.2-0.1-0.4-0.2-0.5
			c-0.1-0.1-0.3-0.2-0.6-0.2c-0.2,0-0.4,0.1-0.5,0.2c-0.1,0.1-0.2,0.2-0.2,0.4c0,0.1,0.1,0.3,0.2,0.4c0.1,0.1,0.3,0.2,0.6,0.3
			c0.3,0.1,0.5,0.2,0.7,0.3c0.2,0.1,0.3,0.2,0.4,0.4c0.1,0.1,0.1,0.3,0.1,0.5c0,0.3-0.1,0.5-0.3,0.7c-0.2,0.2-0.5,0.3-0.9,0.3
			c-0.2,0-0.5,0-0.7-0.1c-0.2-0.1-0.4-0.2-0.5-0.4c-0.1-0.2-0.2-0.4-0.2-0.6h0.5c0,0.2,0.1,0.4,0.2,0.5c0.2,0.1,0.4,0.2,0.6,0.2
			c0.3,0,0.4-0.1,0.6-0.2c0.1-0.1,0.2-0.2,0.2-0.4c0-0.2-0.1-0.3-0.2-0.4C-141.8,39.4-142,39.3-142.3,39.2z"/>
		<path class="st0" d="M-137.6,37.6h-1.2v3.2h-0.5v-3.2h-1.2v-0.4h2.8V37.6z"/>
		<path class="st0" d="M-134.1,39.1c0,0.4-0.1,0.7-0.2,0.9c-0.1,0.3-0.3,0.5-0.5,0.6c-0.2,0.1-0.5,0.2-0.8,0.2
			c-0.3,0-0.5-0.1-0.8-0.2c-0.2-0.1-0.4-0.3-0.5-0.6c-0.1-0.3-0.2-0.6-0.2-0.9v-0.3c0-0.3,0.1-0.7,0.2-0.9c0.1-0.3,0.3-0.5,0.5-0.6
			c0.2-0.1,0.5-0.2,0.8-0.2c0.3,0,0.5,0.1,0.8,0.2c0.2,0.1,0.4,0.3,0.5,0.6s0.2,0.6,0.2,0.9V39.1z M-134.5,38.9c0-0.4-0.1-0.8-0.3-1
			c-0.2-0.2-0.4-0.3-0.7-0.3c-0.3,0-0.5,0.1-0.7,0.3c-0.2,0.2-0.3,0.5-0.3,1v0.3c0,0.4,0.1,0.7,0.3,1c0.2,0.2,0.4,0.4,0.7,0.4
			c0.3,0,0.5-0.1,0.7-0.3c0.2-0.2,0.3-0.5,0.3-1V38.9z"/>
		<path class="st0" d="M-132.5,37.2l1.2,2.9l1.2-2.9h0.6v3.6h-0.5v-1.4l0-1.5l-1.2,2.9h-0.4l-1.2-2.9l0,1.5v1.4h-0.5v-3.6H-132.5z"
			/>
		<path class="st0" d="M-124.1,40.8h-0.5v-1.7h-1.8v1.7h-0.5v-3.6h0.5v1.5h1.8v-1.5h0.5V40.8z"/>
		<path class="st0" d="M-121.1,39.9h-1.5l-0.3,0.9h-0.5l1.4-3.6h0.4l1.4,3.6h-0.5L-121.1,39.9z M-122.4,39.5h1.2l-0.6-1.7
			L-122.4,39.5z"/>
		<path class="st0" d="M-116.7,40.8h-0.5L-119,38v2.8h-0.5v-3.6h0.5l1.8,2.8v-2.8h0.5V40.8z"/>
		<path class="st0" d="M-115.6,40.8v-3.6h1c0.3,0,0.6,0.1,0.8,0.2s0.4,0.3,0.6,0.6c0.1,0.3,0.2,0.5,0.2,0.9v0.2
			c0,0.3-0.1,0.6-0.2,0.9c-0.1,0.3-0.3,0.5-0.6,0.6c-0.2,0.1-0.5,0.2-0.9,0.2H-115.6z M-115.1,37.6v2.8h0.5c0.4,0,0.7-0.1,0.9-0.3
			c0.2-0.2,0.3-0.6,0.3-1v-0.2c0-0.4-0.1-0.7-0.3-1c-0.2-0.2-0.5-0.3-0.8-0.3H-115.1z"/>
		<path class="st0" d="M-109.4,39.7c0,0.4-0.2,0.7-0.4,0.9c-0.2,0.2-0.6,0.3-0.9,0.3c-0.4,0-0.8-0.2-1-0.5c-0.3-0.3-0.4-0.7-0.4-1.2
			v-0.3c0-0.3,0.1-0.6,0.2-0.9c0.1-0.3,0.3-0.4,0.5-0.6c0.2-0.1,0.5-0.2,0.8-0.2c0.4,0,0.7,0.1,0.9,0.3c0.2,0.2,0.4,0.5,0.4,0.9
			h-0.5c0-0.3-0.1-0.5-0.3-0.6c-0.1-0.1-0.3-0.2-0.6-0.2c-0.3,0-0.5,0.1-0.7,0.3s-0.3,0.5-0.3,1v0.3c0,0.4,0.1,0.7,0.2,0.9
			c0.2,0.2,0.4,0.3,0.7,0.3c0.3,0,0.5-0.1,0.6-0.2c0.1-0.1,0.2-0.3,0.3-0.6H-109.4z"/>
		<path class="st0" d="M-107.2,39.3h-0.8v1.5h-0.5v-3.6h1.2c0.4,0,0.7,0.1,0.9,0.3c0.2,0.2,0.3,0.5,0.3,0.8c0,0.2-0.1,0.4-0.2,0.6
			c-0.1,0.2-0.3,0.3-0.5,0.4l0.8,1.5v0h-0.5L-107.2,39.3z M-108,39h0.7c0.2,0,0.4-0.1,0.6-0.2c0.1-0.1,0.2-0.3,0.2-0.5
			c0-0.2-0.1-0.4-0.2-0.5c-0.1-0.1-0.3-0.2-0.6-0.2h-0.7V39z"/>
		<path class="st0" d="M-103.1,39.9h-1.5l-0.3,0.9h-0.5l1.4-3.6h0.4l1.4,3.6h-0.5L-103.1,39.9z M-104.5,39.5h1.2l-0.6-1.7
			L-104.5,39.5z"/>
		<path class="st0" d="M-99.6,39.2h-1.5v1.6h-0.5v-3.6h2.2v0.4h-1.8v1.2h1.5V39.2z"/>
		<path class="st0" d="M-96,37.6h-1.2v3.2h-0.5v-3.2h-1.2v-0.4h2.8V37.6z"/>
		<path class="st0" d="M-93.2,39.1h-1.6v1.3h1.8v0.4h-2.3v-3.6h2.3v0.4h-1.8v1.2h1.6V39.1z"/>
		<path class="st0" d="M-92.1,40.8v-3.6h1c0.3,0,0.6,0.1,0.8,0.2c0.2,0.1,0.4,0.3,0.6,0.6c0.1,0.3,0.2,0.5,0.2,0.9v0.2
			c0,0.3-0.1,0.6-0.2,0.9c-0.1,0.3-0.3,0.5-0.6,0.6c-0.2,0.1-0.5,0.2-0.9,0.2H-92.1z M-91.6,37.6v2.8h0.5c0.4,0,0.7-0.1,0.9-0.3
			c0.2-0.2,0.3-0.6,0.3-1v-0.2c0-0.4-0.1-0.7-0.3-1c-0.2-0.2-0.5-0.3-0.8-0.3H-91.6z"/>
		<path class="st0" d="M-85.9,39.2c-0.4-0.1-0.7-0.3-0.9-0.4c-0.2-0.2-0.3-0.4-0.3-0.6c0-0.3,0.1-0.5,0.3-0.7
			c0.2-0.2,0.5-0.3,0.9-0.3c0.2,0,0.5,0,0.7,0.1c0.2,0.1,0.3,0.2,0.5,0.4s0.2,0.4,0.2,0.6h-0.5c0-0.2-0.1-0.4-0.2-0.5
			c-0.1-0.1-0.3-0.2-0.6-0.2c-0.2,0-0.4,0.1-0.5,0.2c-0.1,0.1-0.2,0.2-0.2,0.4c0,0.1,0.1,0.3,0.2,0.4c0.1,0.1,0.3,0.2,0.6,0.3
			c0.3,0.1,0.5,0.2,0.7,0.3c0.2,0.1,0.3,0.2,0.4,0.4c0.1,0.1,0.1,0.3,0.1,0.5c0,0.3-0.1,0.5-0.3,0.7c-0.2,0.2-0.5,0.3-0.9,0.3
			c-0.2,0-0.5,0-0.7-0.1c-0.2-0.1-0.4-0.2-0.5-0.4c-0.1-0.2-0.2-0.4-0.2-0.6h0.5c0,0.2,0.1,0.4,0.2,0.5c0.2,0.1,0.4,0.2,0.6,0.2
			c0.3,0,0.4-0.1,0.6-0.2c0.1-0.1,0.2-0.2,0.2-0.4c0-0.2-0.1-0.3-0.2-0.4C-85.4,39.4-85.6,39.3-85.9,39.2z"/>
		<path class="st0" d="M-81,40.8h-0.5v-1.7h-1.8v1.7h-0.5v-3.6h0.5v1.5h1.8v-1.5h0.5V40.8z"/>
		<path class="st0" d="M-77.1,39.1c0,0.4-0.1,0.7-0.2,0.9c-0.1,0.3-0.3,0.5-0.5,0.6c-0.2,0.1-0.5,0.2-0.8,0.2
			c-0.3,0-0.5-0.1-0.8-0.2c-0.2-0.1-0.4-0.3-0.5-0.6c-0.1-0.3-0.2-0.6-0.2-0.9v-0.3c0-0.3,0.1-0.7,0.2-0.9c0.1-0.3,0.3-0.5,0.5-0.6
			c0.2-0.1,0.5-0.2,0.8-0.2c0.3,0,0.5,0.1,0.8,0.2c0.2,0.1,0.4,0.3,0.5,0.6c0.1,0.3,0.2,0.6,0.2,0.9V39.1z M-77.6,38.9
			c0-0.4-0.1-0.8-0.3-1c-0.2-0.2-0.4-0.3-0.7-0.3c-0.3,0-0.5,0.1-0.7,0.3c-0.2,0.2-0.3,0.5-0.3,1v0.3c0,0.4,0.1,0.7,0.3,1
			c0.2,0.2,0.4,0.4,0.7,0.4c0.3,0,0.5-0.1,0.7-0.3c0.2-0.2,0.3-0.5,0.3-1V38.9z"/>
		<path class="st0" d="M-74.1,39.1h-1.6v1.3h1.8v0.4h-2.3v-3.6h2.3v0.4h-1.8v1.2h1.6V39.1z"/>
		<path class="st0" d="M-71.9,39.2c-0.4-0.1-0.7-0.3-0.9-0.4c-0.2-0.2-0.3-0.4-0.3-0.6c0-0.3,0.1-0.5,0.3-0.7
			c0.2-0.2,0.5-0.3,0.9-0.3c0.2,0,0.5,0,0.7,0.1c0.2,0.1,0.3,0.2,0.5,0.4s0.2,0.4,0.2,0.6h-0.5c0-0.2-0.1-0.4-0.2-0.5
			c-0.1-0.1-0.3-0.2-0.6-0.2c-0.2,0-0.4,0.1-0.5,0.2c-0.1,0.1-0.2,0.2-0.2,0.4c0,0.1,0.1,0.3,0.2,0.4c0.1,0.1,0.3,0.2,0.6,0.3
			c0.3,0.1,0.5,0.2,0.7,0.3c0.2,0.1,0.3,0.2,0.4,0.4c0.1,0.1,0.1,0.3,0.1,0.5c0,0.3-0.1,0.5-0.3,0.7s-0.5,0.3-0.9,0.3
			c-0.2,0-0.5,0-0.7-0.1c-0.2-0.1-0.4-0.2-0.5-0.4c-0.1-0.2-0.2-0.4-0.2-0.6h0.5c0,0.2,0.1,0.4,0.2,0.5c0.2,0.1,0.4,0.2,0.6,0.2
			c0.3,0,0.4-0.1,0.6-0.2c0.1-0.1,0.2-0.2,0.2-0.4c0-0.2-0.1-0.3-0.2-0.4C-71.4,39.4-71.6,39.3-71.9,39.2z"/>
	</g>
	<g>
		<path class="st1" d="M-103.8,18c-1.4,0-2.8,0.5-4.1,1.5c-0.6,0.5-1.2,1-1.7,1.7c-0.5,0.6-0.9,1.3-1.3,2c-0.4,0.7-0.6,1.5-0.8,2.3
			c-0.2,0.8-0.3,1.6-0.3,2.3s0.1,1.4,0.3,2c0.2,0.6,0.5,1,0.9,1.4c0.4,0.4,0.8,0.6,1.4,0.8s1.1,0.3,1.8,0.3c0.7,0,1.3-0.1,2-0.4
			c1.4-0.5,2.6-1.5,3.6-2.8c1-1.3,1.7-2.7,2.1-4.3c0.4-1.7,0.4-3.1-0.1-4.3C-100.7,18.8-102,18-103.8,18z M-103.5,25.5
			c-0.3,0.7-0.5,1.3-0.9,1.9c-0.3,0.6-0.7,1.2-1.1,1.6c-0.4,0.5-0.8,0.9-1.2,1.1c-0.4,0.3-0.8,0.4-1.2,0.4s-0.7-0.2-0.9-0.5
			c-0.2-0.4-0.3-0.9-0.3-1.5c0-0.6,0.1-1.3,0.2-2c0.2-0.7,0.4-1.4,0.6-2.1c0.3-0.7,0.6-1.3,0.9-1.9c0.4-0.6,0.7-1.1,1.1-1.6
			c0.4-0.5,0.8-0.8,1.1-1.1c0.4-0.3,0.7-0.4,1-0.4c0.3,0,0.5,0.1,0.7,0.2c0.4,0.3,0.6,0.9,0.6,1.9
			C-102.7,22.8-102.9,24.1-103.5,25.5z"/>
		<path class="st1" d="M-77.5,21.4c0.2-0.5,0.4-1,0.4-1.6c0-0.6-0.4-1.2-0.8-1.6c-0.8-0.6-1.7-0.7-2.6-0.7c-0.1,0-1.5,0-1.2,0.3
			c0.4,0.4,1.1,0.4,1.5,0.7c2.1,1.4-1.4,3.7-2.5,4.5c-0.6,0.4-1.2,0.7-1.8,1c-0.4,0.2-1.3,0.3-1.4,0.7c0.1-0.2,0.2-0.5,0.4-0.9
			l1.3-3.5c0.3-0.8,0.7-2.2,1.3-4.1c0.2-0.7,0.4-1.4,0.6-2.1c0.2-0.7,0.3-1.3,0.4-1.8c0.1-0.6,0.2-1.1,0.2-1.5
			c0-0.4-0.2-0.9-0.7-1.3c-0.3-0.2-0.6-0.3-1-0.3c-0.6,0-1,0.4-1.1,1.1c-0.2,1.6-0.6,3.4-1.1,5.3c-1.4,5.4-2.9,9.8-4.6,13.3
			l-0.3,0.7c0,0,0,0-0.1,0c-1,0.8-2.1,1.5-3.4,1.4c-1.1-0.1-1.5-0.9-1.5-1.9c0-0.9,0.5-2.9,1.6-6.1l1.9-5.5c0.3-0.9,0.6-1.8,0.8-2.6
			c0.2-0.8,0.4-1.6,0.6-2.3c0.2-0.7,0.2-1.3,0.3-1.8c0-0.5-0.2-0.9-0.8-1.3c-0.3-0.2-0.6-0.3-1-0.3c-0.7,0-1,0.4-1.1,1.1
			c-0.3,2.6-1.2,6.2-2.8,10.9l-1.1,3.4c-0.3,1-0.6,2-0.9,2.8s-0.3,1.5-0.3,2c0,0.5,0.1,0.9,0.2,1.3c0.1,0.4,0.3,0.7,0.6,0.9
			c0.2,0.2,0.5,0.4,0.8,0.5c0.3,0.1,0.7,0.2,1.1,0.2c1.2,0,2.3-0.3,3.4-0.9c0.5-0.3,1.1-0.6,1.5-1c-0.1,0.2-0.1,0.4-0.1,0.5
			c0,0.3,0.2,0.7,0.5,1c0.2,0.1,0.3,0.2,0.5,0.3c0.2,0.1,0.4,0.1,0.7,0.1s0.5-0.1,0.7-0.4c0.2-0.3,0.4-0.7,0.7-1.2l0.8-1.9
			c0.3-0.7,0.7-1.5,1.2-2.4c1.2,3.9,2.9,5.9,4.9,5.9c0.8,0,1.5-0.2,2-0.7c0.2-0.2,0.4-0.4,0.6-0.6c0.1-0.2,0.3-0.4,0.3-0.6
			c0.1-0.2,0.1-0.4,0.1-0.6c0-0.3-0.1-0.4-0.3-0.4c-0.1,0-0.2,0-0.3,0.1l-0.5,0.2c-0.2,0.1-0.5,0.2-0.8,0.2c-0.6,0-1.3-0.4-2-1.3
			c-0.8-0.9-1.3-2-1.6-3.2c2.3-0.8,3.9-1.7,4.9-2.5C-78.2,22.4-77.8,21.9-77.5,21.4z"/>
		<g>
			<path class="st1" d="M-111,15.9c0-0.9-0.1-1.5-0.2-2.1c-0.3-1.6-0.9-2.4-1.8-2.4c-0.7,0-1.3,0.2-1.8,0.7
				c-0.5,0.4-0.7,0.8-0.5,1.1c0.7,1.1,1,2.3,1,3.9c0,2-0.5,4-1.5,6.2c-0.4,1-1,1.9-1.5,2.8c-0.6,0.9-1.2,1.6-1.8,2.2
				c-0.6,0.6-1.2,1.1-1.8,1.5c-0.6,0.4-1.1,0.5-1.6,0.5s-0.9-0.2-1.1-0.7c-0.1-0.2-0.2-0.4-0.2-0.6c0-0.2-0.1-0.7-0.1-1.3
				c0-0.6,0.1-1.5,0.3-2.5c0.6-3.4,1.8-6.1,3.7-8.1l0.5-0.5c0.1-0.1,0.1-0.2,0.1-0.4c0-0.3-0.2-0.5-0.6-0.7
				c-0.2-0.1-0.4-0.1-0.6-0.2c-0.2,0-0.4-0.1-0.6-0.1c-0.2,0-0.3,0-0.4,0.1c-0.8,0.4-1.6,0.9-2.4,1.6c-2.8,2.4-5.7,5.9-8.6,10.6
				l-1.4,2.4c-0.1-0.4-0.2-0.9-0.2-1.5c0-1,0.3-2.3,0.8-3.7c0.3-0.7,0.5-1.3,0.9-2c0.3-0.7,0.7-1.4,1-2.1c0.3-0.7,0.7-1.3,1-2
				c0.6-1.2,1.4-2.4,2-3.7c0,0,0-0.1,0-0.1l0,0c0.2-0.5,0.3-0.9,0.3-1.2c0-0.5-0.1-0.9-0.4-1.3c-0.2-0.4-0.5-0.7-0.9-0.9
				c-0.4-0.2-0.8-0.4-1.2-0.5c-0.4-0.1-0.8-0.2-1.2-0.2c-1,0-2,0.1-3,0.3c-1,0.2-1.9,0.5-2.8,0.9c-0.9,0.4-1.7,0.8-2.4,1.3
				c-0.7,0.5-1.4,1.1-1.9,1.6c-0.5,0.6-1,1.2-1.3,1.8c-0.3,0.6-0.5,1.2-0.5,1.8c0,0.6,0.1,1.2,0.4,1.7c0.3,0.5,0.6,0.9,1,1.2
				c0.4,0.3,0.9,0.6,1.4,0.7c0.5,0.2,1,0.2,1.5,0.2c0.2,0,0.4,0,0.7-0.1c0.3-0.1,0.6-0.1,0.9-0.3c0.3-0.1,0.6-0.3,0.8-0.4
				c0.2-0.2,0.3-0.4,0.3-0.6c0-0.2-0.1-0.3-0.2-0.3c-0.1,0.1-0.3,0.2-0.6,0.3c-0.3,0.2-0.6,0.3-0.9,0.5c-0.4,0.2-0.8,0.3-1.3,0.3
				c-0.2,0-0.4,0-0.7-0.1c-0.3-0.1-0.5-0.2-0.7-0.3c-0.2-0.1-0.4-0.3-0.6-0.6c-0.2-0.3-0.2-0.6-0.2-1c0-0.6,0.1-1.2,0.4-1.8
				c0.3-0.6,0.7-1.3,1.1-1.9c0.5-0.6,1.1-1.2,1.7-1.8c0.7-0.6,1.4-1.1,2.1-1.5c0.1-0.1,0.3-0.2,0.4-0.2c4-2,4.9-0.4,4.9-0.4
				c0.6,0.7-0.8,2.7-1.2,3.5c-0.4,0.8-0.9,1.6-1.3,2.5c-0.4,0.9-0.8,1.8-1.2,2.8c-0.4,0.9-0.7,1.9-1,2.7c-0.3,0.9-0.5,1.7-0.7,2.5
				c-0.2,0.8-0.3,1.6-0.3,2.3s0.2,1.5,0.6,2.3c0.2,0.4,0.5,0.7,0.8,1c0.3,0.3,0.7,0.4,1.2,0.4c0.5,0,0.8-0.1,1-0.4l1.8-2.6
				c0.7-1,1.9-2.7,3.7-5c0.7-0.9,1.5-1.8,2.2-2.6c-0.8,2-1.2,4-1.2,6.1c0,1.3,0.3,2.3,0.8,3.1c0.6,0.9,1.5,1.4,2.7,1.4
				c1.3,0,2.7-0.5,4.2-1.4c0.7-0.5,1.4-1,2.1-1.6c0.7-0.6,1.3-1.3,1.9-2.1c0.6-0.8,1.2-1.6,1.7-2.5c0.5-0.9,1-1.8,1.3-2.8
				c0.4-1,0.7-2,0.9-3C-111.1,17.7-111,16.7-111,15.9z"/>
		</g>
	</g>
</g>
<g>
	<path class="st2" d="M59.1,21.2c-2.1,0-4.1,0.7-6,2.2c-0.9,0.7-1.7,1.5-2.4,2.4c-0.7,0.9-1.4,1.9-1.9,3c-0.5,1.1-0.9,2.1-1.2,3.3
		c-0.3,1.1-0.4,2.2-0.4,3.3c0,1.1,0.2,2.1,0.5,2.9c0.3,0.8,0.7,1.5,1.3,2c0.6,0.5,1.2,0.9,2,1.2c0.8,0.2,1.6,0.4,2.6,0.4
		c1,0,1.9-0.2,2.9-0.6c2-0.8,3.7-2.1,5.2-4c1.5-1.9,2.5-3.9,3-6.2c0.6-2.4,0.6-4.5-0.1-6.2C63.6,22.4,61.8,21.2,59.1,21.2z
		 M59.6,32.1c-0.4,1-0.8,1.9-1.3,2.8c-0.5,0.9-1,1.7-1.6,2.4c-0.6,0.7-1.1,1.2-1.7,1.6c-0.6,0.4-1.2,0.6-1.8,0.6
		c-0.6,0-1-0.3-1.3-0.8c-0.3-0.5-0.4-1.2-0.4-2.1c0-0.9,0.1-1.9,0.3-2.9c0.2-1,0.5-2,0.9-3c0.4-1,0.8-1.9,1.4-2.8
		c0.5-0.9,1-1.6,1.6-2.3c0.6-0.7,1.1-1.2,1.7-1.6c0.6-0.4,1-0.6,1.5-0.6s0.8,0.1,1,0.2c0.6,0.4,0.9,1.3,0.9,2.8
		C60.8,28.1,60.4,30,59.6,32.1z"/>
	<path class="st2" d="M97.1,26.1c0.4-0.7,0.5-1.5,0.5-2.3c0-0.9-0.5-1.8-1.2-2.3c-1.1-0.8-2.4-1-3.8-1c-0.2,0-2.2,0-1.7,0.5
		c0.5,0.5,1.6,0.6,2.2,1c3.1,2-2.1,5.4-3.6,6.5c-0.8,0.6-1.7,1.1-2.6,1.5c-0.5,0.2-1.8,0.4-2.1,1c0.1-0.3,0.3-0.7,0.6-1.3l1.9-5.1
		c0.4-1.2,1.1-3.1,1.9-5.9c0.3-1.1,0.6-2.1,0.8-3c0.2-1,0.4-1.9,0.6-2.7c0.2-0.8,0.2-1.5,0.3-2.2c0-0.7-0.3-1.3-1-1.8
		c-0.4-0.3-0.8-0.4-1.4-0.4c-0.9,0-1.5,0.6-1.6,1.7c-0.3,2.3-0.9,4.9-1.6,7.7c-2,7.8-4.2,14.2-6.7,19.2L78,38c0,0-0.1,0-0.1,0.1
		c-1.4,1.2-3.1,2.2-5,2c-1.6-0.1-2.2-1.3-2.2-2.8c0-1.3,0.8-4.3,2.3-8.8l2.7-8c0.5-1.3,0.9-2.6,1.2-3.8c0.4-1.2,0.6-2.3,0.9-3.3
		c0.2-1,0.3-1.9,0.4-2.6c0-0.7-0.3-1.4-1.1-1.9c-0.4-0.3-0.9-0.4-1.5-0.4c-1,0-1.5,0.6-1.6,1.7c-0.4,3.7-1.7,9-4.1,15.8l-1.7,4.9
		c-0.5,1.5-0.9,2.9-1.2,4c-0.3,1.2-0.5,2.1-0.5,2.8c0,0.7,0.1,1.3,0.3,1.9c0.2,0.5,0.5,1,0.8,1.3c0.3,0.3,0.7,0.6,1.1,0.7
		c0.4,0.2,0.9,0.2,1.6,0.2c1.7,0,3.3-0.4,4.9-1.2c0.7-0.4,1.6-0.8,2.2-1.5c-0.1,0.3-0.2,0.5-0.2,0.7c0,0.5,0.2,1,0.7,1.4
		c0.2,0.2,0.5,0.4,0.8,0.5c0.3,0.1,0.6,0.2,1,0.2s0.7-0.2,1-0.6c0.3-0.4,0.6-1,1-1.7l1.2-2.7c0.5-1.1,1-2.2,1.7-3.5
		c1.8,5.7,4.1,8.5,7.1,8.5c1.1,0,2.1-0.3,3-1c0.3-0.3,0.6-0.6,0.8-0.8c0.2-0.3,0.4-0.6,0.5-0.8c0.1-0.3,0.2-0.6,0.2-0.9
		c0-0.4-0.2-0.6-0.5-0.6c-0.1,0-0.3,0-0.4,0.1l-0.7,0.4c-0.3,0.2-0.7,0.2-1.2,0.2c-0.9,0-1.8-0.6-2.9-1.9c-1.1-1.3-1.8-2.9-2.2-4.6
		c3.3-1.2,5.6-2.4,7.1-3.7C96.2,27.5,96.8,26.8,97.1,26.1z"/>
	<g>
		<path class="st2" d="M48.8,18.1c0-1.2-0.1-2.2-0.2-3c-0.5-2.3-1.3-3.5-2.6-3.5c-1,0-1.9,0.3-2.7,1c-0.8,0.6-1,1.1-0.8,1.5
			c1,1.5,1.5,3.4,1.5,5.6c0,2.8-0.7,5.8-2.2,9c-0.6,1.4-1.4,2.7-2.2,4c-0.8,1.2-1.7,2.3-2.6,3.2c-0.9,0.9-1.8,1.6-2.6,2.2
			c-0.9,0.5-1.7,0.8-2.4,0.8s-1.2-0.3-1.6-1c-0.2-0.3-0.3-0.6-0.3-0.9C30,36.7,30,36,30,35.1c0-0.9,0.1-2.1,0.4-3.7
			c0.9-5,2.7-8.9,5.3-11.7l0.7-0.7c0.1-0.2,0.2-0.3,0.2-0.5c0-0.4-0.3-0.7-0.9-1c-0.2-0.1-0.5-0.2-0.8-0.3c-0.3-0.1-0.5-0.1-0.8-0.1
			c-0.2,0-0.5,0-0.7,0.1c-1.1,0.6-2.3,1.3-3.4,2.3C26,23,21.8,28.1,17.6,34.9l-2.1,3.4c-0.2-0.6-0.2-1.3-0.2-2.1
			c0-1.5,0.4-3.3,1.2-5.4c0.4-0.9,0.8-1.9,1.3-2.9c0.5-1,0.9-2,1.4-3c0.5-1,0.9-2,1.4-2.9c0.9-1.8,2.1-3.5,2.9-5.4
			c0-0.1,0-0.1,0.1-0.2l0,0c0.3-0.7,0.4-1.3,0.4-1.7c0-0.7-0.2-1.4-0.5-1.9c-0.3-0.5-0.8-0.9-1.3-1.3c-0.5-0.3-1.1-0.6-1.7-0.7
			c-0.6-0.1-1.2-0.2-1.8-0.2c-1.5,0-2.9,0.2-4.3,0.5c-1.4,0.3-2.8,0.8-4,1.3c-1.3,0.5-2.4,1.2-3.5,1.9c-1.1,0.7-2,1.5-2.8,2.4
			c-0.8,0.8-1.4,1.7-1.8,2.6c-0.4,0.9-0.7,1.7-0.7,2.5c0,0.9,0.2,1.8,0.6,2.5c0.4,0.7,0.9,1.3,1.5,1.8c0.6,0.5,1.3,0.8,2,1.1
			c0.8,0.2,1.5,0.4,2.2,0.4c0.2,0,0.6,0,1-0.1c0.4-0.1,0.9-0.2,1.3-0.4c0.4-0.2,0.8-0.4,1.1-0.6c0.3-0.3,0.5-0.6,0.5-0.9
			s-0.1-0.5-0.3-0.4c-0.2,0.1-0.5,0.3-0.8,0.5c-0.4,0.2-0.8,0.5-1.4,0.7c-0.5,0.3-1.2,0.4-1.9,0.4c-0.3,0-0.6,0-1-0.1
			c-0.4-0.1-0.7-0.2-1.1-0.4c-0.3-0.2-0.6-0.5-0.8-0.9C4.1,25,4,24.5,4,24c0-0.8,0.2-1.7,0.6-2.6c0.4-0.9,1-1.8,1.6-2.8
			C7,17.7,7.8,16.8,8.8,16c1-0.8,2-1.6,3.1-2.2c0.2-0.1,0.4-0.2,0.6-0.3c5.7-2.9,7.1-0.5,7.1-0.5c0.8,1-1.2,3.9-1.8,5
			c-0.6,1.2-1.3,2.4-1.8,3.5c-0.6,1.3-1.2,2.7-1.8,4c-0.6,1.3-1,2.7-1.5,4c-0.4,1.3-0.8,2.5-1,3.7c-0.2,1.2-0.4,2.3-0.4,3.4
			c0,1.1,0.3,2.2,0.9,3.3c0.3,0.6,0.7,1,1.1,1.4c0.5,0.4,1,0.6,1.7,0.6c0.7,0,1.1-0.2,1.4-0.6l2.6-3.7c1-1.5,2.8-3.9,5.4-7.2
			c1-1.3,2.1-2.6,3.2-3.8c-1.2,2.8-1.8,5.8-1.8,8.8c0,1.8,0.4,3.3,1.1,4.5c0.9,1.4,2.1,2,3.9,2c1.9,0,3.9-0.7,6-2.1
			c1-0.7,2-1.4,3-2.4c1-0.9,1.9-2,2.8-3.1c0.9-1.1,1.7-2.3,2.4-3.6c0.7-1.3,1.4-2.7,1.9-4.1c0.5-1.4,1-2.9,1.3-4.3
			C48.6,20.7,48.8,19.3,48.8,18.1z"/>
	</g>
</g>
</svg>
